<svg xmlns="http://www.w3.org/2000/svg" width="20" height="20" viewBox="0 0 20 20" fill="none">
	<path d="M17.8947 0H2.10526C0.942558 0 0 0.942558 0 2.10526V17.8947C0 19.0574 0.942558 20 2.10526 20H17.8947C19.0574 20 20 19.0574 20 17.8947V2.10526C20 0.942558 19.0574 0 17.8947 0Z" fill="#00A0D2"/>
	<path d="M17.8997 0.523438H2.1102C1.23817 0.523438 0.53125 1.23036 0.53125 2.10238V17.8919C0.53125 18.7639 1.23817 19.4708 2.1102 19.4708H17.8997C18.7717 19.4708 19.4786 18.7639 19.4786 17.8919V2.10238C19.4786 1.23036 18.7717 0.523438 17.8997 0.523438Z" fill="#00A0D2" stroke="#00A0D2"/>
	<path d="M3.64062 9.60547L7.91602 13.6561L15.4449 6.52323" stroke="white" stroke-linejoin="round"/>
</svg>