<svg xmlns="http://www.w3.org/2000/svg" width="20" height="20" viewBox="0 0 20 20" fill="none">
	<path d="M9.9974 1.66797C12.6156 1.66797 14.9521 2.87657 16.4785 4.76286C16.7679 5.12063 16.7126 5.64525 16.3548 5.93473C15.997 6.22415 15.4724 6.16878 15.1829 5.81104C13.9594 4.299 12.0913 3.33464 9.9974 3.33464C6.3155 3.33464 3.33073 6.3194 3.33073 10.0013C3.33073 10.4615 2.95763 10.8346 2.4974 10.8346C2.03716 10.8346 1.66406 10.4615 1.66406 10.0013C1.66406 5.39893 5.39502 1.66797 9.9974 1.66797Z" fill="#ACACAC"/>
	<path d="M12.9141 5.0013H15.4141V2.5013C15.4141 2.04106 15.7872 1.66797 16.2474 1.66797C16.7076 1.66797 17.0807 2.04106 17.0807 2.5013V5.83464C17.0807 6.29487 16.7076 6.66797 16.2474 6.66797H12.9141C12.4538 6.66797 12.0807 6.29487 12.0807 5.83464C12.0807 5.3744 12.4538 5.0013 12.9141 5.0013Z" fill="#ACACAC"/>
	<path d="M9.9974 18.3346C7.37921 18.3346 5.04266 17.126 3.51628 15.2397C3.22687 14.882 3.28224 14.3574 3.63998 14.0679C3.99775 13.7785 4.52237 13.8338 4.81185 14.1916C6.03539 15.7036 7.90348 16.668 9.9974 16.668C13.6793 16.668 16.6641 13.6832 16.6641 10.0013C16.6641 9.54107 17.0372 9.16797 17.4974 9.16797C17.9576 9.16797 18.3307 9.54107 18.3307 10.0013C18.3307 14.6037 14.5998 18.3346 9.9974 18.3346Z" fill="#ACACAC"/>
	<path d="M7.08073 15.0013H4.58073L4.58073 17.5013C4.58073 17.9615 4.20763 18.3346 3.7474 18.3346C3.28716 18.3346 2.91406 17.9615 2.91406 17.5013L2.91406 14.168C2.91406 13.7077 3.28716 13.3346 3.7474 13.3346L7.08073 13.3346C7.54097 13.3346 7.91406 13.7077 7.91406 14.168C7.91406 14.6282 7.54097 15.0013 7.08073 15.0013Z" fill="#ACACAC"/>
</svg>