<svg xmlns="http://www.w3.org/2000/svg" width="20" height="20" viewBox="0 0 20 20" fill="none">
	<path d="M3.33203 6.66797H16.6654M3.33203 6.66797V14.0015C3.33203 14.9349 3.33203 15.4014 3.51369 15.7579C3.67348 16.0715 3.92826 16.3267 4.24186 16.4865C4.59803 16.668 5.06453 16.668 5.99612 16.668H14.0013C14.9329 16.668 15.3987 16.668 15.7549 16.4865C16.0685 16.3267 16.3241 16.0715 16.4839 15.7579C16.6654 15.4017 16.6654 14.9359 16.6654 14.0043V6.66797M3.33203 6.66797V6.00146C3.33203 5.06804 3.33203 4.60099 3.51369 4.24447C3.67348 3.93086 3.92826 3.67608 4.24186 3.51629C4.59838 3.33464 5.06544 3.33464 5.99886 3.33464H6.66536M16.6654 6.66797V5.99873C16.6654 5.06713 16.6654 4.60064 16.4839 4.24447C16.3241 3.93086 16.0685 3.67608 15.7549 3.51629C15.3983 3.33464 14.9323 3.33464 13.9989 3.33464H13.332M6.66536 3.33464H13.332M6.66536 3.33464V1.66797M13.332 3.33464V1.66797M12.4987 10.0013L9.16536 13.3346L7.4987 11.668" stroke="#00A0D2" stroke-width="2" stroke-linecap="round" stroke-linejoin="round"/>
</svg>