<svg xmlns="http://www.w3.org/2000/svg" width="20" height="20" viewBox="0 0 20 20" fill="none">
	<path d="M1.14062 16.0291V6.33473C1.14088 4.6781 2.48393 3.33473 4.14062 3.33473H8.9873C9.53943 3.33473 9.98705 3.78267 9.9873 4.33473C9.9873 4.88702 9.53959 5.33473 8.9873 5.33473H4.14062C3.5885 5.33473 3.14088 5.78267 3.14062 6.33473V16.0291C3.14062 16.5814 3.58834 17.0291 4.14062 17.0291H13.2871C13.8393 17.029 14.2871 16.5813 14.2871 16.0291V10.6345H16.2871V16.0291C16.2871 17.6859 14.9439 19.029 13.2871 19.0291H4.14062C2.48377 19.0291 1.14062 17.6859 1.14062 16.0291ZM14.1172 2.1443C14.8982 1.36341 16.1643 1.36331 16.9453 2.1443L17.8545 3.05348C18.6355 3.83453 18.6355 5.10154 17.8545 5.88259L9.86719 13.8699C9.58805 14.1489 9.23271 14.3393 8.8457 14.4168L7.70801 14.6443C6.30876 14.9238 5.07564 13.6901 5.35547 12.2908L5.58203 11.1531C5.6595 10.766 5.85075 10.4107 6.12988 10.1316L14.1172 2.1443ZM7.54395 11.5457L7.31641 12.6834L8.45312 12.4558L16.4404 4.46852L15.5312 3.55837L7.54395 11.5457Z" fill="#00A0D2"/>
</svg>