<svg width="24" height="24" viewBox="0 0 24 24" fill="none" xmlns="http://www.w3.org/2000/svg">
<path d="M7.99414 19V15.8633C7.99433 15.3112 8.44197 14.8633 8.99414 14.8633C9.54631 14.8633 9.99395 15.3112 9.99414 15.8633V19C9.99414 20.1046 10.8896 21 11.9941 21H19.9941C21.0987 21 21.9941 20.1046 21.9941 19V5C21.9941 3.89543 21.0987 3 19.9941 3H11.9941C10.8896 3 9.99414 3.89543 9.99414 5V9.72754C9.994 10.2797 9.54634 10.7275 8.99414 10.7275C8.44194 10.7275 7.99428 10.2797 7.99414 9.72754V5C7.99414 2.79086 9.785 1 11.9941 1H19.9941C22.2033 1 23.9941 2.79086 23.9941 5V19C23.9941 21.2091 22.2033 23 19.9941 23H11.9941C9.785 23 7.99414 21.2091 7.99414 19Z" fill="#979797"/>
<path d="M4.5752 8.18652C4.12578 7.86551 3.50167 7.96953 3.18066 8.41895L0.265625 12.5L3.18066 16.5811C3.50167 17.0305 4.12578 17.1345 4.5752 16.8135C5.02461 16.4925 5.12863 15.8684 4.80762 15.4189L3.43652 13.5H14.9941C15.5464 13.5 15.9941 13.0523 15.9941 12.5C15.9941 11.9477 15.5464 11.5 14.9941 11.5H3.43652L4.80762 9.58105C5.12863 9.13164 5.02461 8.50753 4.5752 8.18652Z" fill="#979797"/>
</svg>
