<svg xmlns="http://www.w3.org/2000/svg" width="20" height="20" viewBox="0 0 20 20" fill="none">
	<path d="M10.4867 18.7435H4.63613C1.21445 18.7435 0 16.3435 0 14.1074V6.3002C0 2.96526 1.3012 1.66406 4.63613 1.66406H10.4867C13.8217 1.66406 15.1229 2.96526 15.1229 6.3002V14.1074C15.1229 17.4423 13.8217 18.7435 10.4867 18.7435ZM4.63613 3.12912C2.12048 3.12912 1.46506 3.78454 1.46506 6.3002V14.1074C1.46506 15.2929 1.87951 17.2785 4.63613 17.2785H10.4867C13.0024 17.2785 13.6578 16.6231 13.6578 14.1074V6.3002C13.6578 3.78454 13.0024 3.12912 10.4867 3.12912H4.63613Z" fill="white"/>
	<path d="M18.0991 16.094C17.6846 16.094 17.1545 15.9591 16.5473 15.535L13.9738 13.7326C13.781 13.5976 13.6654 13.3759 13.6654 13.135V7.27474C13.6654 7.03378 13.781 6.81209 13.9738 6.67715L16.5473 4.87475C17.6943 4.07475 18.5328 4.30607 18.928 4.50848C19.3232 4.72053 19.9979 5.26993 19.9979 6.66751V13.7326C19.9979 15.1301 19.3232 15.6892 18.928 15.8916C18.7449 15.9976 18.4557 16.094 18.0991 16.094ZM15.1208 12.7494L17.3858 14.3301C17.8196 14.6289 18.128 14.6579 18.2533 14.5904C18.3883 14.5229 18.5328 14.253 18.5328 13.7326V6.67715C18.5328 6.14703 18.3786 5.88679 18.2533 5.81932C18.128 5.75185 17.8196 5.78077 17.3858 6.07956L15.1208 7.66028V12.7494Z" fill="white"/>
	<path d="M9.15436 9.96315C7.95918 9.96315 6.98569 8.98966 6.98569 7.79448C6.98569 6.59931 7.95918 5.62581 9.15436 5.62581C10.3495 5.62581 11.323 6.59931 11.323 7.79448C11.323 8.98966 10.3495 9.96315 9.15436 9.96315ZM9.15436 7.07159C8.75918 7.07159 8.43147 7.3993 8.43147 7.79448C8.43147 8.18966 8.75918 8.51737 9.15436 8.51737C9.54954 8.51737 9.87725 8.18966 9.87725 7.79448C9.87725 7.3993 9.54954 7.07159 9.15436 7.07159Z" fill="white"/>
</svg>