<svg width="275" height="69" viewBox="0 0 275 69" fill="none" xmlns="http://www.w3.org/2000/svg">
<g clip-path="url(#clip0_2726_249320)">
<path d="M0 67.9742V3.24219H26.1156C30.8352 3.24219 35.3189 4.1116 39.488 5.7714C43.657 7.43119 47.2755 9.80233 50.2646 12.6477C53.3324 15.5721 55.6922 18.9707 57.5014 22.9226C59.3106 26.8745 60.1759 31.1425 60.1759 35.7267C60.1759 40.3109 59.3106 44.3418 57.5014 48.2937C55.6922 52.2456 53.3324 55.6442 50.2646 58.5686C47.1968 61.493 43.657 63.7851 39.488 65.4449C35.3189 67.1047 30.8352 67.9742 26.1156 67.9742H0ZM25.8009 17.3109H15.8896V53.9054H25.8009C28.3181 53.9054 30.6779 53.4312 32.8804 52.4827C35.083 51.5343 36.9708 50.2697 38.6227 48.6099C40.2746 46.9501 41.5332 45.0532 42.4771 42.8401C43.4211 40.6271 43.893 38.2559 43.893 35.7267C43.893 33.1975 43.4211 30.7473 42.4771 28.4552C41.5332 26.2422 40.2746 24.2662 38.6227 22.6064C36.9708 20.9467 35.083 19.603 32.8804 18.6546C30.6779 17.7061 28.3181 17.2319 25.8009 17.2319V17.3109Z" fill="#00A0D2"/>
<path d="M67.8047 67.9723V19.0479H82.7503V23.9483C84.3236 22.0514 86.2114 20.5497 88.3353 19.5222C90.4591 18.4947 92.8977 17.9414 95.4935 17.9414C96.9094 17.9414 98.0106 18.0995 98.8759 18.2576C99.7412 18.4156 100.449 18.7318 101.078 19.127V32.1682C100.134 31.773 98.9546 31.3778 97.7747 31.1407C96.5161 30.8246 95.2575 30.7455 93.9989 30.7455C91.6391 30.7455 89.5152 31.2988 87.5487 32.4053C85.5821 33.5119 83.9303 35.0136 82.7503 36.9105V67.9723H67.8047Z" fill="#00A0D2"/>
<path d="M104.777 51.7695C107.137 51.7695 109.104 52.6389 110.834 54.2987C112.486 55.9585 113.351 58.0135 113.351 60.3846C113.351 62.7558 112.486 64.7317 110.834 66.4706C109.182 68.2094 107.137 68.9998 104.777 68.9998C102.417 68.9998 100.451 68.1304 98.7203 66.4706C97.0684 64.8108 96.2031 62.7558 96.2031 60.3846C96.2031 58.0135 97.0684 56.0376 98.7203 54.2987C100.372 52.5599 102.417 51.7695 104.777 51.7695Z" fill="#00A0D2"/>
<path d="M151.106 54.2217C154.253 54.2217 157.163 53.5104 159.838 52.1667C162.512 50.8231 164.951 48.8471 167.075 46.1599L177.458 56.4348C174.469 60.2286 170.536 63.232 165.659 65.5241C160.782 67.8162 155.747 68.9228 150.634 68.9228C145.757 68.9228 141.195 68.0533 136.947 66.3145C132.7 64.5757 129.003 62.2836 125.935 59.2801C122.867 56.3557 120.428 52.799 118.698 48.7681C116.889 44.7372 116.023 40.3111 116.023 35.6478C116.023 30.9846 116.889 26.5585 118.698 22.4485C120.507 18.3386 122.946 14.7819 126.013 11.8575C129.081 8.93306 132.778 6.56192 137.026 4.82309C141.274 3.08426 145.836 2.21484 150.634 2.21484C153.309 2.21484 155.905 2.531 158.579 3.1633C161.254 3.7956 163.771 4.66502 166.131 5.69251C168.491 6.79904 170.772 8.06364 172.738 9.6444C174.783 11.2252 176.514 12.964 178.009 14.8609L167.311 25.3729C165.029 22.5276 162.512 20.3935 159.68 18.9709C156.849 17.5482 153.86 16.8368 150.634 16.8368C148.039 16.8368 145.679 17.3111 143.398 18.2595C141.116 19.208 139.229 20.5516 137.577 22.2114C135.925 23.8712 134.666 25.8471 133.722 28.1392C132.778 30.4313 132.306 32.9605 132.306 35.5688C132.306 38.177 132.778 40.7062 133.722 42.9193C134.666 45.1324 136.003 47.1083 137.655 48.7681C139.307 50.4279 141.352 51.7715 143.634 52.72C145.915 53.6684 148.432 54.1427 151.106 54.1427V54.2217Z" fill="#00A0D2"/>
<path d="M199.011 68.8429C193.819 68.8429 189.65 67.4202 186.346 64.5749C183.043 61.7295 181.391 58.0938 181.391 53.6677C181.391 49.2415 183.121 45.4477 186.661 42.8395C190.201 40.2312 195.078 38.9666 201.449 38.9666C203.337 38.9666 205.225 39.1247 207.034 39.3618C208.843 39.5989 210.653 39.9151 212.462 40.3893V38.0182C212.462 35.568 211.675 33.7501 210.102 32.4855C208.529 31.3 206.248 30.6677 203.18 30.6677C201.292 30.6677 199.168 30.9838 196.73 31.6161C194.37 32.2484 191.538 33.1969 188.47 34.5405L183.121 23.5543C187.054 21.7364 190.909 20.3927 194.684 19.5233C198.46 18.6539 202.157 18.1797 205.854 18.1797C212.619 18.1797 217.811 19.7604 221.587 23.001C225.362 26.2415 227.172 30.7467 227.172 36.6745V68.0525H212.462V65.1281C210.495 66.4718 208.45 67.4202 206.248 68.0525C204.045 68.6058 201.685 68.922 199.011 68.922V68.8429ZM195.55 53.4305C195.55 55.0113 196.258 56.1969 197.595 57.0663C198.932 57.9357 200.82 58.3309 203.18 58.3309C204.989 58.3309 206.641 58.1728 208.214 57.7776C209.787 57.3824 211.203 56.8292 212.462 56.0388V49.7158C211.046 49.3206 209.63 49.0835 208.135 48.8464C206.641 48.6092 205.146 48.5302 203.652 48.5302C201.056 48.5302 199.089 48.9254 197.674 49.7948C196.258 50.6642 195.55 51.8498 195.55 53.3515V53.4305Z" fill="#00A0D2"/>
<path d="M250.93 0V67.9725H235.984V3.24055L250.93 0Z" fill="#00A0D2"/>
<path d="M275 0V67.9725H260.055V3.24055L275 0Z" fill="#00A0D2"/>
</g>
<defs>
<clipPath id="clip0_2726_249320">
<rect width="275" height="69" fill="white"/>
</clipPath>
</defs>
</svg>
