<svg width="112" height="28" viewBox="0 0 112 28" fill="none" xmlns="http://www.w3.org/2000/svg">
<path d="M0 27.3522V1.30078H10.5686C12.4777 1.30078 14.2771 1.64332 15.9625 2.32384C17.6478 3.00435 19.1093 3.9315 20.3333 5.09614C21.5619 6.26078 22.5347 7.64466 23.2563 9.24775C23.9779 10.8463 24.3342 12.5681 24.3342 14.4041C24.3342 16.1899 23.9734 17.8798 23.2563 19.4646C22.5347 21.054 21.5619 22.4288 20.3333 23.598C19.1047 24.7626 17.6478 25.6806 15.9625 26.352C14.2771 27.0234 12.4777 27.3568 10.5686 27.3568H0V27.3522ZM10.4178 6.955H6.39868V21.6934H10.4178C11.4363 21.6934 12.3909 21.5062 13.2861 21.1362C14.1767 20.7617 14.9531 20.2502 15.6108 19.5925C16.2685 18.9348 16.7846 18.1584 17.1545 17.2678C17.529 16.3726 17.7117 15.4181 17.7117 14.4041C17.7117 13.3628 17.5244 12.39 17.1545 11.4811C16.7846 10.5768 16.2685 9.78668 15.6108 9.1153C14.9531 8.44392 14.1767 7.91869 13.2861 7.53504C12.3909 7.14683 11.4363 6.955 10.4178 6.955Z" fill="#00A0D2"/>
<path d="M27.4219 27.3543V7.66958H33.4506V9.64262C34.0946 8.87533 34.8528 8.27702 35.7205 7.85684C36.5883 7.43665 37.5565 7.22656 38.6253 7.22656C39.1962 7.2494 39.6529 7.29507 40 7.35901C40.3471 7.42295 40.644 7.53713 40.8952 7.71069V12.9584C40.4978 12.7849 40.0503 12.6433 39.557 12.5291C39.0592 12.4149 38.5522 12.3601 38.0315 12.3601C37.0861 12.3601 36.2138 12.5839 35.41 13.0315C34.6016 13.4791 33.953 14.0865 33.4552 14.8538V27.3588H27.4219V27.3543Z" fill="#00A0D2"/>
<path d="M42.3448 20.8398C43.2902 20.8398 44.0986 21.1824 44.7837 21.8629C45.4642 22.5434 45.8067 23.3564 45.8067 24.3018C45.8067 25.2472 45.4642 26.0556 44.7837 26.7407C44.1031 27.4212 43.2902 27.7638 42.3448 27.7638C41.3994 27.7638 40.591 27.4212 39.9059 26.7407C39.2254 26.0602 38.8828 25.2472 38.8828 24.3018C38.8828 23.361 39.2254 22.548 39.9059 21.8629C40.5864 21.1778 41.3994 20.8398 42.3448 20.8398Z" fill="#00A0D2"/>
<path d="M61.1038 21.8072C62.3689 21.8072 63.5427 21.5332 64.6205 20.9897C65.6984 20.4462 66.6712 19.6378 67.5436 18.569L71.75 22.6978C70.5351 24.2095 68.9411 25.429 66.9681 26.347C64.9951 27.265 62.9672 27.7263 60.8846 27.7263C58.9252 27.7263 57.0846 27.3792 55.3582 26.685C53.6318 25.9908 52.1521 25.0499 50.9098 23.8579C49.6675 22.6658 48.6901 21.2546 47.9685 19.6149C47.2469 17.9753 46.8906 16.2169 46.8906 14.3306C46.8906 12.4444 47.2514 10.6769 47.9685 9.02809C48.6901 7.37933 49.6721 5.95892 50.928 4.76687C52.1795 3.57483 53.6638 2.63398 55.3765 1.93976C57.0892 1.24555 58.9252 0.898438 60.8846 0.898438C61.9487 0.898438 63.0175 1.02175 64.0862 1.27295C65.1503 1.51958 66.1688 1.86212 67.1371 2.29601C68.1053 2.72989 68.9959 3.26426 69.818 3.89454C70.6356 4.52481 71.3435 5.22816 71.9418 5.99546L67.6258 10.2384C66.7078 9.0966 65.6847 8.2334 64.5566 7.65336C63.4285 7.06875 62.2045 6.78102 60.8891 6.78102C59.8478 6.78102 58.875 6.97284 57.9661 7.35649C57.0618 7.74014 56.2763 8.26994 55.6186 8.93675C54.9609 9.60813 54.4402 10.4074 54.0566 11.3391C53.6729 12.2708 53.4811 13.2665 53.4811 14.3352C53.4811 15.4039 53.6729 16.3905 54.0566 17.2948C54.4402 18.1991 54.9746 18.9892 55.6551 19.656C56.3356 20.3274 57.144 20.8526 58.0757 21.2363C58.9983 21.6154 60.0077 21.8072 61.1038 21.8072Z" fill="#00A0D2"/>
<path d="M80.4635 27.6882C78.3808 27.6882 76.6681 27.1173 75.3299 25.9755C73.9917 24.8337 73.3203 23.3721 73.3203 21.5864C73.3203 19.7275 74.0328 18.2751 75.4578 17.2338C76.8827 16.1925 78.8741 15.6718 81.4317 15.6718C82.199 15.6718 82.9572 15.7221 83.7016 15.8225C84.4461 15.923 85.1768 16.06 85.8984 16.2336V15.2653C85.8984 14.2743 85.5833 13.5344 84.9485 13.0502C84.3136 12.5661 83.3773 12.3241 82.1396 12.3241C81.3723 12.3241 80.5046 12.4474 79.5363 12.6986C78.568 12.9452 77.4537 13.3425 76.1885 13.8906L74.0282 9.46041C75.6176 8.73879 77.175 8.19986 78.7005 7.84362C80.226 7.48281 81.7331 7.30469 83.2221 7.30469C85.9533 7.30469 88.0724 7.9578 89.5888 9.25945C91.1005 10.5611 91.8587 12.3926 91.8587 14.7492V27.3639H85.8939V26.1718C85.0992 26.7199 84.2634 27.1081 83.3819 27.3456C82.5004 27.5694 81.5276 27.6882 80.4635 27.6882ZM79.0476 21.4722C79.0476 22.0933 79.3216 22.5774 79.8651 22.9246C80.4086 23.2717 81.1668 23.4452 82.1351 23.4452C82.8567 23.4452 83.5326 23.3721 84.1629 23.2214C84.7932 23.0707 85.3732 22.8378 85.8939 22.5135V19.9833C85.323 19.8326 84.7384 19.7229 84.1446 19.6499C83.5509 19.5768 82.9389 19.5357 82.3223 19.5357C81.281 19.5357 80.4726 19.7047 79.9017 20.0381C79.3308 20.3761 79.0476 20.8556 79.0476 21.4722Z" fill="#00A0D2"/>
<path d="M101.451 0V27.3531H95.4219V1.30166L101.451 0Z" fill="#00A0D2"/>
<path d="M111.193 0V27.3531H105.164V1.30166L111.193 0Z" fill="#00A0D2"/>
</svg>
