<svg width="24" height="24" viewBox="0 0 24 24" fill="none" xmlns="http://www.w3.org/2000/svg">
<path d="M3.5 11.5H4.5V20.5H19.5V11.5H20.5V21.5H3.5V11.5ZM15.2891 13.1914L11.1494 17.2949L8.70898 14.876L9.20117 14.3887L10.7979 15.9727L11.1504 16.3213L11.502 15.9727L14.7979 12.7041L15.2891 13.1914ZM18.5 9.5V10.5H5.5V9.5H18.5ZM6.5 4.5V5.5H4.5V8.5H3.5V4.5H6.5ZM20.5 4.5V8.5H19.5V5.5H17.5V4.5H20.5ZM16.5 6.5V7.5H15.5V6.5H16.5ZM8.5 6.5V7.5H7.5V6.5H8.5ZM16.5 4.5V5.5H15.5V4.5H16.5ZM14.5 4.5V5.5H9.5V4.5H14.5ZM8.5 4.5V5.5H7.5V4.5H8.5ZM16.5 2.5V3.5H15.5V2.5H16.5ZM8.5 2.5V3.5H7.5V2.5H8.5Z" fill="white" stroke="white"/>
</svg>
