<svg width="56" height="56" viewBox="0 0 56 56" fill="none" xmlns="http://www.w3.org/2000/svg">
<circle cx="27.75" cy="27.75" r="27" fill="white" stroke="#E0E0E0" stroke-width="1.5"/>
<path fill-rule="evenodd" clip-rule="evenodd" d="M27.8911 41.799C22.7161 41.799 18.2969 40.9938 18.2969 37.7687C18.2969 34.5436 22.6881 31.5664 27.8911 31.5664C33.066 31.5664 37.4853 34.5147 37.4853 37.7398C37.4853 40.9636 33.094 41.799 27.8911 41.799Z" stroke="#00A0D2" stroke-width="3" stroke-linecap="round" stroke-linejoin="round"/>
<path fill-rule="evenodd" clip-rule="evenodd" d="M27.8842 26.9975C31.2802 26.9975 34.0327 24.245 34.0327 20.849C34.0327 17.453 31.2802 14.6992 27.8842 14.6992C24.4882 14.6992 21.7344 17.453 21.7344 20.849C21.7229 24.2335 24.4563 26.986 27.8409 26.9975C27.8561 26.9975 27.8702 26.9975 27.8842 26.9975Z" stroke="#00A0D2" stroke-width="3" stroke-linecap="round" stroke-linejoin="round"/>
</svg>
