<svg xmlns="http://www.w3.org/2000/svg" width="28" height="28" viewBox="0 0 28 28" fill="none">
	<path
			d="M10.3955 24.1138C10.1739 24.1138 9.95219 24.0321 9.77719 23.8571C9.43885 23.5188 9.43885 22.9588 9.77719 22.6205L17.3839 15.0138C17.9439 14.4538 17.9439 13.5438 17.3839 12.9838L9.77719 5.37714C9.43885 5.0388 9.43885 4.4788 9.77719 4.14047C10.1155 3.80214 10.6755 3.80214 11.0139 4.14047L18.6205 11.7471C19.2155 12.3421 19.5539 13.1471 19.5539 13.9988C19.5539 14.8505 19.2272 15.6555 18.6205 16.2505L11.0139 23.8571C10.8389 24.0205 10.6172 24.1138 10.3955 24.1138Z"
			fill="#1F1F1F"
	/>
</svg>