<svg xmlns="http://www.w3.org/2000/svg" width="20" height="20" viewBox="0 0 20 20" fill="none">
	<path d="M13.3385 18.9557H2.50521C1.70521 18.9557 1.04688 18.2974 1.04688 17.4974V6.66406C1.04688 2.98073 2.98854 1.03906 6.67188 1.03906H13.3385C17.0219 1.03906 18.9635 2.98073 18.9635 6.66406V13.3307C18.9635 17.0141 17.0219 18.9557 13.3385 18.9557ZM6.67188 2.28906C3.68854 2.28906 2.29688 3.68073 2.29688 6.66406V17.4974C2.29688 17.6141 2.38854 17.7057 2.50521 17.7057H13.3385C16.3219 17.7057 17.7135 16.3141 17.7135 13.3307V6.66406C17.7135 3.68073 16.3219 2.28906 13.3385 2.28906H6.67188Z" fill="white"/>
	<path d="M14.1719 8.53906H5.83854C5.49688 8.53906 5.21354 8.25573 5.21354 7.91406C5.21354 7.5724 5.49688 7.28906 5.83854 7.28906H14.1719C14.5135 7.28906 14.7969 7.5724 14.7969 7.91406C14.7969 8.25573 14.5135 8.53906 14.1719 8.53906Z" fill="white"/>
	<path d="M11.6719 12.7057H5.83854C5.49688 12.7057 5.21354 12.4224 5.21354 12.0807C5.21354 11.7391 5.49688 11.4557 5.83854 11.4557H11.6719C12.0135 11.4557 12.2969 11.7391 12.2969 12.0807C12.2969 12.4224 12.0135 12.7057 11.6719 12.7057Z" fill="white"/>
	<path d="M13.3385 18.9557H2.50521C1.70521 18.9557 1.04688 18.2974 1.04688 17.4974V6.66406C1.04688 2.98073 2.98854 1.03906 6.67188 1.03906H13.3385C17.0219 1.03906 18.9635 2.98073 18.9635 6.66406V13.3307C18.9635 17.0141 17.0219 18.9557 13.3385 18.9557ZM6.67188 2.28906C3.68854 2.28906 2.29688 3.68073 2.29688 6.66406V17.4974C2.29688 17.6141 2.38854 17.7057 2.50521 17.7057H13.3385C16.3219 17.7057 17.7135 16.3141 17.7135 13.3307V6.66406C17.7135 3.68073 16.3219 2.28906 13.3385 2.28906H6.67188Z" stroke="white" stroke-width="0.5"/>
	<path d="M14.1719 8.53906H5.83854C5.49688 8.53906 5.21354 8.25573 5.21354 7.91406C5.21354 7.5724 5.49688 7.28906 5.83854 7.28906H14.1719C14.5135 7.28906 14.7969 7.5724 14.7969 7.91406C14.7969 8.25573 14.5135 8.53906 14.1719 8.53906Z" stroke="white" stroke-width="0.5"/>
	<path d="M11.6719 12.7057H5.83854C5.49688 12.7057 5.21354 12.4224 5.21354 12.0807C5.21354 11.7391 5.49688 11.4557 5.83854 11.4557H11.6719C12.0135 11.4557 12.2969 11.7391 12.2969 12.0807C12.2969 12.4224 12.0135 12.7057 11.6719 12.7057Z" stroke="white" stroke-width="0.5"/>
</svg>