<svg width="24" height="24" viewBox="0 0 24 24" fill="none" xmlns="http://www.w3.org/2000/svg">
<path d="M10 2V4H7V6H5V2H10ZM19 2V6H17V4H14V2H19Z" fill="#1F1F1F"/>
<path d="M7 6C7 9.46388 9.37764 12 12 12C14.6224 12 17 9.46388 17 6H19C19 10.2681 16.0051 14 12 14C7.99494 14 5 10.2681 5 6H7Z" fill="#1F1F1F"/>
<path d="M20 16C20 15.4477 19.5523 15 19 15C18.4477 15 18 15.4477 18 16C18 16.5523 18.4477 17 19 17V19C17.3431 19 16 17.6569 16 16C16 14.3431 17.3431 13 19 13C20.6569 13 22 14.3431 22 16C22 17.6569 20.6569 19 19 19V17C19.5523 17 20 16.5523 20 16Z" fill="#1F1F1F"/>
<path d="M11 13V18H13V13H11Z" fill="#1F1F1F"/>
<path d="M17 18C17 19.1046 16.1046 20 15 20C13.8954 20 13 19.1046 13 18H11C11 20.2091 12.7909 22 15 22C17.2091 22 19 20.2091 19 18H17Z" fill="#1F1F1F"/>
</svg>
