<svg xmlns="http://www.w3.org/2000/svg" width="20" height="20" viewBox="0 0 20 20" fill="none">
	<path d="M8.33268 1.66797V3.33464H5.83268V5.0013H4.16602V1.66797H8.33268ZM15.8327 1.66797V5.0013H14.166V3.33464H11.666V1.66797H15.8327Z" fill="white"/>
	<path d="M5.83268 5.0013C5.83268 7.88787 7.81405 10.0013 9.99935 10.0013C12.1846 10.0013 14.166 7.88787 14.166 5.0013H15.8327C15.8327 8.55806 13.3369 11.668 9.99935 11.668C6.6618 11.668 4.16602 8.55806 4.16602 5.0013H5.83268Z" fill="white"/>
	<path d="M16.666 13.3346C16.666 12.8744 16.2929 12.5013 15.8327 12.5013C15.3724 12.5013 14.9994 12.8744 14.9994 13.3346C14.9994 13.7949 15.3724 14.168 15.8327 14.168V15.8346C14.452 15.8346 13.3327 14.7153 13.3327 13.3346C13.3327 11.9539 14.452 10.8346 15.8327 10.8346C17.2134 10.8346 18.3327 11.9539 18.3327 13.3346C18.3327 14.7153 17.2134 15.8346 15.8327 15.8346V14.168C16.2929 14.168 16.666 13.7949 16.666 13.3346Z" fill="white"/>
	<path d="M9.16602 10.8346V15.0013H10.8327V10.8346H9.16602Z" fill="white"/>
	<path d="M14.166 15.0013C14.166 15.9218 13.4198 16.668 12.4993 16.668C11.5789 16.668 10.8327 15.9218 10.8327 15.0013H9.16602C9.16602 16.8423 10.6584 18.3346 12.4993 18.3346C14.3403 18.3346 15.8327 16.8423 15.8327 15.0013H14.166Z" fill="white"/>
</svg>