<svg width="24" height="24" viewBox="0 0 24 24" fill="none" xmlns="http://www.w3.org/2000/svg">
<path d="M19.0001 2.5995C19.2789 2.54095 19.6413 2.48886 20.0167 2.5829L20.1788 2.6327L20.379 2.71962C20.7693 2.91351 21.0863 3.2294 21.2804 3.62001L21.3663 3.82118L21.4161 3.98231C21.5102 4.35775 21.459 4.72031 21.4005 4.99891C21.3313 5.32807 21.2056 5.73154 21.0675 6.18055H21.0665L21.0675 6.18153L16.9767 19.4765C16.7992 20.0531 16.6469 20.5506 16.4952 20.9237C16.3573 21.2628 16.1346 21.7344 15.6847 22.0155C15.1373 22.3575 14.4571 22.4153 13.8585 22.1669C13.3687 21.9636 13.0719 21.5355 12.88 21.2235C12.6686 20.8801 12.4362 20.4141 12.1661 19.8739L9.57528 14.6923C9.52831 14.5983 9.50455 14.5515 9.48642 14.5184C9.48569 14.5171 9.48414 14.5157 9.48349 14.5145C9.45196 14.4973 9.40751 14.4751 9.31845 14.4306L4.12509 11.8329C3.585 11.5628 3.11875 11.3312 2.77548 11.12C2.46352 10.9281 2.03542 10.6305 1.83212 10.1405C1.58441 9.54307 1.64122 8.86334 1.98349 8.31532C2.26448 7.8656 2.73502 7.64187 3.07431 7.5038C3.44766 7.35187 3.94633 7.19995 4.52353 7.02235L17.8175 2.93153C18.267 2.7932 18.6707 2.66869 19.0001 2.5995ZM19.4112 4.55653C19.1929 4.60238 18.8928 4.69367 18.4054 4.84364L5.11142 8.93446C4.49681 9.12357 4.10019 9.24566 3.82821 9.35633C3.8071 9.36493 3.78822 9.37408 3.7706 9.38172C3.78679 9.39221 3.80381 9.40487 3.82333 9.41688C4.07346 9.57075 4.44449 9.75725 5.01962 10.0448L10.0333 12.5516L14.4474 8.13758C14.8379 7.74751 15.471 7.74726 15.8614 8.13758C16.2519 8.52811 16.2519 9.1621 15.8614 9.55262L11.4474 13.9647L13.9552 18.9794C14.2427 19.5545 14.4291 19.9255 14.5831 20.1757C14.5946 20.1943 14.6062 20.2108 14.6163 20.2265C14.6238 20.2092 14.6343 20.1914 14.6427 20.1708C14.7533 19.8988 14.8756 19.5028 15.0645 18.8886L19.1554 5.59364L19.1573 5.58778C19.3063 5.1034 19.3967 4.80528 19.4425 4.58778C19.4452 4.57477 19.4452 4.562 19.4474 4.55067C19.4362 4.55281 19.424 4.55385 19.4112 4.55653Z" fill="#ACACAC"/>
</svg>
