<svg width="24" height="24" viewBox="0 0 24 24" fill="none" xmlns="http://www.w3.org/2000/svg">
<path d="M13 5C13 3.89543 12.1046 3 11 3C9.89543 3 9 3.89543 9 5C9 6.10457 9.89543 7 11 7V9C8.79086 9 7 7.20914 7 5C7 2.79086 8.79086 1 11 1C13.2091 1 15 2.79086 15 5C15 7.20914 13.2091 9 11 9V7C12.1046 7 13 6.10457 13 5Z" fill="#1F1F1F"/>
<path d="M4 17.286C4 14.4538 6.05954 12.104 8.7627 11.6503L9.09375 13.6229C7.33797 13.9177 6 15.4467 6 17.286C6.00017 19.3371 7.66282 20.9997 9.71387 20.9999C11.5532 20.9999 13.0823 19.662 13.377 17.9062L15.3496 18.2372C14.8959 20.9404 12.5462 22.9999 9.71387 22.9999C6.55825 22.9997 4.00017 20.4417 4 17.286Z" fill="#1F1F1F"/>
<path d="M12.2858 10V13.9307H16.9225L21.2164 21.1309L20.357 21.6426L19.4987 22.1553L15.7867 15.9307H10.2858V10H12.2858Z" fill="#1F1F1F"/>
</svg>
