<svg width="25" height="12" viewBox="0 0 25 12" fill="none" xmlns="http://www.w3.org/2000/svg">
<path d="M19.333 0C20.8058 0 22 1.19423 22 2.66699V8.66699C21.9998 10.1396 20.8057 11.333 19.333 11.333H2.66699C1.19434 11.333 0.000175738 10.1396 0 8.66699V2.66699C0 1.19423 1.19423 0 2.66699 0H19.333ZM2.66699 1C1.79509 1 1.07895 1.66949 1.00586 2.52246L1 2.66699V8.66699C1.00017 9.53874 1.66961 10.2541 2.52246 10.3271L2.66699 10.333H19.333C20.205 10.333 20.9212 9.66367 20.9941 8.81055L21 8.66699V2.66699C21 1.79509 20.3305 1.07895 19.4775 1.00586L19.333 1H2.66699ZM23 3.66699C23.8047 4.0058 24.3281 4.7939 24.3281 5.66699C24.328 6.54 23.8046 7.32826 23 7.66699V3.66699Z" fill="black"/>
</svg>
