<svg width="24" height="24" viewBox="0 0 24 24" fill="none" xmlns="http://www.w3.org/2000/svg">
<path d="M4.29286 4.29286C4.68336 3.90237 5.31639 3.90239 5.70693 4.29286L12.0009 10.5849L18.2919 4.29579C18.6824 3.9053 19.3164 3.90523 19.7069 4.29579C20.0972 4.68637 20.0964 5.31943 19.7059 5.70985L13.4149 11.9989L19.7069 18.2899C20.0975 18.6804 20.0974 19.3144 19.7069 19.705C19.3165 20.0952 18.6833 20.0952 18.2929 19.705L12.0009 13.413L5.70693 19.7069C5.31639 20.0974 4.68336 20.0974 4.29286 19.7069C3.90239 19.3164 3.90237 18.6834 4.29286 18.2929L10.5858 11.9999L4.29286 5.70693C3.90237 5.31643 3.90239 4.6834 4.29286 4.29286Z" fill="#1F1F1F"/>
</svg>
