<svg width="22" height="22" viewBox="0 0 22 22" fill="none" xmlns="http://www.w3.org/2000/svg">
<path d="M13.7526 11.8711H7.33594C6.9601 11.8711 6.64844 11.5594 6.64844 11.1836C6.64844 10.8078 6.9601 10.4961 7.33594 10.4961H13.7526C14.1284 10.4961 14.4401 10.8078 14.4401 11.1836C14.4401 11.5594 14.1284 11.8711 13.7526 11.8711Z" fill="#00A0D2"/>
<path d="M11.3509 15.5391H7.33594C6.9601 15.5391 6.64844 15.2274 6.64844 14.8516C6.64844 14.4757 6.9601 14.1641 7.33594 14.1641H11.3509C11.7268 14.1641 12.0384 14.4757 12.0384 14.8516C12.0384 15.2274 11.7268 15.5391 11.3509 15.5391Z" fill="#00A0D2"/>
<path d="M12.8359 6.1862H9.16927C8.28927 6.1862 6.64844 6.1862 6.64844 3.66536C6.64844 1.14453 8.28927 1.14453 9.16927 1.14453H12.8359C13.7159 1.14453 15.3568 1.14453 15.3568 3.66536C15.3568 4.54536 15.3568 6.1862 12.8359 6.1862ZM9.16927 2.51953C8.26177 2.51953 8.02344 2.51953 8.02344 3.66536C8.02344 4.8112 8.26177 4.8112 9.16927 4.8112H12.8359C13.9818 4.8112 13.9818 4.57286 13.9818 3.66536C13.9818 2.51953 13.7434 2.51953 12.8359 2.51953H9.16927Z" fill="#00A0D2"/>
<path d="M13.75 20.8536H8.25C3.09833 20.8536 2.0625 18.4886 2.0625 14.6661V9.16608C2.0625 4.98608 3.575 3.19858 7.29667 3.00608C7.66333 2.98774 8.0025 3.27191 8.02083 3.65691C8.03917 4.04191 7.74583 4.35358 7.37 4.37191C4.76667 4.51858 3.4375 5.29774 3.4375 9.16608V14.6661C3.4375 18.0577 4.10667 19.4786 8.25 19.4786H13.75C17.8933 19.4786 18.5625 18.0577 18.5625 14.6661V9.16608C18.5625 5.29774 17.2333 4.51858 14.63 4.37191C14.2542 4.35358 13.9608 4.02358 13.9792 3.64774C13.9975 3.27191 14.3275 2.97858 14.7033 2.99691C18.425 3.19858 19.9375 4.98607 19.9375 9.15691V14.6569C19.9375 18.4886 18.9017 20.8536 13.75 20.8536Z" fill="#00A0D2"/>
</svg>
