<svg width="116" height="115" viewBox="0 0 116 115" fill="none" xmlns="http://www.w3.org/2000/svg">
<path fill-rule="evenodd" clip-rule="evenodd" d="M7.32813 86.5064L58.8131 4.83984L115.635 45.6731L115.635 114.726L48.8523 114.726L7.32813 86.5064Z" fill="url(#paint0_linear_1084_14190)" fill-opacity="0.2" style="mix-blend-mode:multiply"/>
<g filter="url(#filter0_d_1084_14190)">
<rect x="3" y="3" width="57.3711" height="83.7138" rx="10" fill="url(#paint1_linear_1084_14190)"/>
</g>
<mask id="path-3-outside-1_1084_14190" maskUnits="userSpaceOnUse" x="11.6172" y="24.7344" width="40" height="41" fill="black">
<rect fill="white" x="11.6172" y="24.7344" width="40" height="41"/>
<path d="M41.1777 26.7344C43.663 26.7344 45.6777 28.7491 45.6777 31.2344L45.6777 33.6162C48.1409 36.692 49.6152 40.5928 49.6152 44.8379C49.6152 49.0828 48.1407 52.9829 45.6777 56.0586L45.6777 58.4395C45.6777 60.9247 43.663 62.9394 41.1777 62.9395L22.6172 62.9395C20.1319 62.9395 18.1172 60.9247 18.1172 58.4395L18.1172 56.7285C15.3171 53.5592 13.6172 49.3972 13.6172 44.8379C13.6172 40.2783 15.3168 36.1156 18.1172 32.9463L18.1172 31.2344C18.1172 28.7491 20.1319 26.7344 22.6172 26.7344L41.1777 26.7344Z"/>
</mask>
<path d="M41.1777 26.7344C43.663 26.7344 45.6777 28.7491 45.6777 31.2344L45.6777 33.6162C48.1409 36.692 49.6152 40.5928 49.6152 44.8379C49.6152 49.0828 48.1407 52.9829 45.6777 56.0586L45.6777 58.4395C45.6777 60.9247 43.663 62.9394 41.1777 62.9395L22.6172 62.9395C20.1319 62.9395 18.1172 60.9247 18.1172 58.4395L18.1172 56.7285C15.3171 53.5592 13.6172 49.3972 13.6172 44.8379C13.6172 40.2783 15.3168 36.1156 18.1172 32.9463L18.1172 31.2344C18.1172 28.7491 20.1319 26.7344 22.6172 26.7344L41.1777 26.7344Z" fill="white"/>
<path d="M41.1777 26.7344L41.1778 24.7344L41.1777 24.7344L41.1777 26.7344ZM45.6777 31.2344L47.6777 31.2344L45.6777 31.2344ZM45.6777 33.6162L43.6777 33.6162L43.6777 34.3184L44.1166 34.8664L45.6777 33.6162ZM49.6152 44.8379L51.6152 44.8379L49.6152 44.8379ZM45.6777 56.0586L44.1166 54.8085L43.6777 55.3565L43.6777 56.0586L45.6777 56.0586ZM45.6777 58.4395L43.6777 58.4395L45.6777 58.4395ZM41.1777 62.9395L41.1777 64.9395L41.1778 64.9395L41.1777 62.9395ZM22.6172 62.9395L22.6172 60.9395L22.6172 62.9395ZM18.1172 58.4395L16.1172 58.4395L18.1172 58.4395ZM18.1172 56.7285L20.1172 56.7285L20.1172 55.9716L19.616 55.4043L18.1172 56.7285ZM13.6172 44.8379L11.6172 44.8379L13.6172 44.8379ZM18.1172 32.9463L19.616 34.2706L20.1172 33.7033L20.1172 32.9463L18.1172 32.9463ZM18.1172 31.2344L16.1172 31.2344L16.1172 31.2344L18.1172 31.2344ZM22.6172 26.7344L22.6172 24.7344L22.6172 26.7344ZM41.1777 26.7344L41.1777 28.7344C42.5584 28.7344 43.6777 29.8537 43.6777 31.2344L45.6777 31.2344L47.6777 31.2344C47.6777 27.6445 44.7675 24.7344 41.1778 24.7344L41.1777 26.7344ZM45.6777 31.2344L43.6777 31.2344L43.6777 33.6162L45.6777 33.6162L47.6777 33.6162L47.6777 31.2344L45.6777 31.2344ZM45.6777 33.6162L44.1166 34.8664C46.3065 37.6008 47.6152 41.0642 47.6152 44.8379L49.6152 44.8379L51.6152 44.8379C51.6152 40.1213 49.9754 35.7831 47.2388 32.366L45.6777 33.6162ZM49.6152 44.8379L47.6152 44.8379C47.6152 48.6112 46.3063 52.074 44.1166 54.8085L45.6777 56.0586L47.2389 57.3087C49.975 53.8919 51.6152 49.5543 51.6152 44.8379L49.6152 44.8379ZM45.6777 56.0586L43.6777 56.0586L43.6777 58.4395L45.6777 58.4395L47.6777 58.4395L47.6777 56.0586L45.6777 56.0586ZM45.6777 58.4395L43.6777 58.4395C43.6777 59.8201 42.5584 60.9394 41.1777 60.9395L41.1777 62.9395L41.1778 64.9395C44.7675 64.9394 47.6777 62.0293 47.6777 58.4395L45.6777 58.4395ZM41.1777 62.9395L41.1777 60.9395L22.6172 60.9395L22.6172 62.9395L22.6172 64.9395L41.1777 64.9395L41.1777 62.9395ZM22.6172 62.9395L22.6172 60.9395C21.2365 60.9395 20.1172 59.8202 20.1172 58.4395L18.1172 58.4395L16.1172 58.4395C16.1172 62.0293 19.0273 64.9395 22.6172 64.9395L22.6172 62.9395ZM18.1172 58.4395L20.1172 58.4395L20.1172 56.7285L18.1172 56.7285L16.1172 56.7285L16.1172 58.4395L18.1172 58.4395ZM18.1172 56.7285L19.616 55.4043C17.126 52.586 15.6172 48.8903 15.6172 44.8379L13.6172 44.8379L11.6172 44.8379C11.6172 49.904 13.5082 54.5325 16.6184 58.0527L18.1172 56.7285ZM13.6172 44.8379L15.6172 44.8379C15.6172 40.785 17.1258 37.0888 19.616 34.2706L18.1172 32.9463L16.6184 31.622C13.5078 35.1425 11.6172 39.7717 11.6172 44.8379L13.6172 44.8379ZM18.1172 32.9463L20.1172 32.9463L20.1172 31.2344L18.1172 31.2344L16.1172 31.2344L16.1172 32.9463L18.1172 32.9463ZM18.1172 31.2344L20.1172 31.2344C20.1172 29.8537 21.2365 28.7344 22.6172 28.7344L22.6172 26.7344L22.6172 24.7344C19.0273 24.7344 16.1172 27.6445 16.1172 31.2344L18.1172 31.2344ZM22.6172 26.7344L22.6172 28.7344L41.1777 28.7344L41.1777 26.7344L41.1777 24.7344L22.6172 24.7344L22.6172 26.7344Z" fill="#BDBDBD" mask="url(#path-3-outside-1_1084_14190)"/>
<rect x="24.9375" y="37.832" width="3.93723" height="14.0459" rx="1.96862" fill="#848484"/>
<rect x="34.5" y="37.832" width="3.93723" height="14.0459" rx="1.96862" fill="#848484"/>
<defs>
<filter id="filter0_d_1084_14190" x="0" y="0" width="71.375" height="97.7148" filterUnits="userSpaceOnUse" color-interpolation-filters="sRGB">
<feFlood flood-opacity="0" result="BackgroundImageFix"/>
<feColorMatrix in="SourceAlpha" type="matrix" values="0 0 0 0 0 0 0 0 0 0 0 0 0 0 0 0 0 0 127 0" result="hardAlpha"/>
<feOffset dx="4" dy="4"/>
<feGaussianBlur stdDeviation="3.5"/>
<feColorMatrix type="matrix" values="0 0 0 0 0 0 0 0 0 0 0 0 0 0 0 0 0 0 0.170007 0"/>
<feBlend mode="normal" in2="BackgroundImageFix" result="effect1_dropShadow_1084_14190"/>
<feBlend mode="normal" in="SourceGraphic" in2="effect1_dropShadow_1084_14190" result="shape"/>
</filter>
<linearGradient id="paint0_linear_1084_14190" x1="108.92" y1="54.5416" x2="41.4995" y2="13.5303" gradientUnits="userSpaceOnUse">
<stop stop-opacity="0.01"/>
<stop offset="1"/>
</linearGradient>
<linearGradient id="paint1_linear_1084_14190" x1="31.6856" y1="3" x2="31.6856" y2="86.7138" gradientUnits="userSpaceOnUse">
<stop stop-color="#E7E7E8"/>
<stop offset="1" stop-color="#CACDCF"/>
</linearGradient>
</defs>
</svg>
