<svg width="22" height="22" viewBox="0 0 22 22" fill="none" xmlns="http://www.w3.org/2000/svg">
<path d="M8.2526 20.1654H13.7526C18.3359 20.1654 20.1693 18.332 20.1693 13.7487V8.2487C20.1693 3.66536 18.3359 1.83203 13.7526 1.83203H8.2526C3.66927 1.83203 1.83594 3.66536 1.83594 8.2487V13.7487C1.83594 18.332 3.66927 20.1654 8.2526 20.1654Z" stroke="#00A0D2" stroke-width="1.5" stroke-linecap="round" stroke-linejoin="round"/>
<path d="M8.2474 9.16667C9.25992 9.16667 10.0807 8.34586 10.0807 7.33333C10.0807 6.32081 9.25992 5.5 8.2474 5.5C7.23487 5.5 6.41406 6.32081 6.41406 7.33333C6.41406 8.34586 7.23487 9.16667 8.2474 9.16667Z" stroke="#00A0D2" stroke-width="1.5" stroke-linecap="round" stroke-linejoin="round"/>
<path d="M2.44531 17.3692L6.96448 14.3351C7.68865 13.8492 8.73365 13.9042 9.38448 14.4634L9.68698 14.7292C10.402 15.3434 11.557 15.3434 12.272 14.7292L16.0853 11.4567C16.8003 10.8426 17.9553 10.8426 18.6703 11.4567L20.1645 12.7401" stroke="#00A0D2" stroke-width="1.5" stroke-linecap="round" stroke-linejoin="round"/>
</svg>
