<svg width="20" height="20" viewBox="0 0 20 20" fill="none" xmlns="http://www.w3.org/2000/svg">
<circle cx="10" cy="10" r="9.5" fill="white" stroke="#D9D9D9"/>
<path d="M14.25 12.5938C14.25 12.7106 14.2223 12.8238 14.1611 12.9258L14.1602 12.9248C14.104 13.0211 14.0266 13.0984 13.9307 13.1543C13.8273 13.2191 13.7119 13.25 13.5918 13.25C13.4153 13.25 13.258 13.1844 13.1309 13.0635L13.124 13.0566L9.50098 9.34863L5.87988 13.0566L5.87402 13.0635C5.74688 13.1845 5.58875 13.25 5.41211 13.25C5.29124 13.2499 5.17403 13.2208 5.06934 13.1553L5.07031 13.1543C4.97402 13.0983 4.89615 13.0214 4.83984 12.9248C4.77879 12.8229 4.75 12.7105 4.75 12.5937C4.75002 12.4158 4.8152 12.2567 4.94141 12.1309L4.94043 12.1309L9.02051 7.95508L9.02148 7.95605C9.08252 7.89256 9.15264 7.83956 9.23438 7.80371L9.23926 7.80176C9.3225 7.76724 9.4101 7.75 9.5 7.75C9.59086 7.75 9.68094 7.76665 9.76563 7.80371C9.84849 7.84005 9.92083 7.89331 9.98242 7.95801L14.0596 12.1309L14.0586 12.1309C14.1848 12.2567 14.25 12.4158 14.25 12.5938Z" fill="#00A0D2" stroke="#00A0D2" stroke-width="0.5"/>
</svg>
