<svg width="22" height="22" viewBox="0 0 22 22" fill="none" xmlns="http://www.w3.org/2000/svg">
<path d="M11.2557 20.3C10.2057 20.3 9.30573 19.4 9.30573 18.35V3.95C9.30573 2.9 10.2057 2 11.2557 2C12.3057 2 13.2057 2.9 13.2057 3.95V18.5C13.2057 19.55 12.3057 20.3 11.2557 20.3Z" stroke="#00A0D2" stroke-width="1.5" stroke-miterlimit="10"/>
<path d="M3.3058 6.49932C3.7558 5.59932 4.9558 5.29932 6.0058 5.74932L18.6058 12.9493C19.5058 13.5493 19.8058 14.7493 19.3558 15.6493C18.7558 16.5493 17.5558 16.8493 16.6558 16.3993L4.0558 9.19932C3.0058 8.74932 2.7058 7.54932 3.3058 6.49932Z" stroke="#00A0D2" stroke-width="1.5" stroke-miterlimit="10"/>
<path d="M3.30576 15.8005C2.70576 14.9005 3.15576 13.7005 4.05576 13.1005L16.6558 5.90047C17.5558 5.30047 18.7558 5.75047 19.3558 6.65047C19.9558 7.55047 19.5058 8.75047 18.6058 9.35047L6.00576 16.5505C4.95576 17.0005 3.75576 16.7005 3.30576 15.8005Z" stroke="#00A0D2" stroke-width="1.5" stroke-miterlimit="10"/>
</svg>
