<svg width="22" height="22" viewBox="0 0 22 22" fill="none" xmlns="http://www.w3.org/2000/svg">
<path d="M2.90625 6.82031L11.0004 11.5045L19.0396 6.84778" stroke="#00A0D2" stroke-width="1.5" stroke-linecap="round" stroke-linejoin="round"/>
<path d="M11 19.8103V11.4961" stroke="#00A0D2" stroke-width="1.5" stroke-linecap="round" stroke-linejoin="round"/>
<path d="M9.09915 2.27203L4.20415 4.99456C3.09498 5.60873 2.1875 7.14871 2.1875 8.41371V13.5929C2.1875 14.8579 3.09498 16.3979 4.20415 17.012L9.09915 19.7346C10.1441 20.3121 11.8583 20.3121 12.9033 19.7346L17.7983 17.012C18.9075 16.3979 19.815 14.8579 19.815 13.5929V8.41371C19.815 7.14871 18.9075 5.60873 17.7983 4.99456L12.9033 2.27203C11.8491 1.68536 10.1441 1.68536 9.09915 2.27203Z" stroke="#00A0D2" stroke-width="1.5" stroke-linecap="round" stroke-linejoin="round"/>
<path d="M15.582 12.1362V8.78118L6.88281 3.75781" stroke="#00A0D2" stroke-width="1.5" stroke-linecap="round" stroke-linejoin="round"/>
</svg>
