<svg width="22" height="22" viewBox="0 0 22 22" fill="none" xmlns="http://www.w3.org/2000/svg">
<path d="M20.1693 8.48047H1.83594C1.4601 8.48047 1.14844 8.1688 1.14844 7.79297C1.14844 7.41714 1.4601 7.10547 1.83594 7.10547H20.1693C20.5451 7.10547 20.8568 7.41714 20.8568 7.79297C20.8568 8.1688 20.5451 8.48047 20.1693 8.48047Z" fill="#00A0D2"/>
<path d="M7.33333 15.8125H5.5C5.12417 15.8125 4.8125 15.5008 4.8125 15.125C4.8125 14.7492 5.12417 14.4375 5.5 14.4375H7.33333C7.70917 14.4375 8.02083 14.7492 8.02083 15.125C8.02083 15.5008 7.70917 15.8125 7.33333 15.8125Z" fill="#00A0D2"/>
<path d="M13.2917 15.8125H9.625C9.24917 15.8125 8.9375 15.5008 8.9375 15.125C8.9375 14.7492 9.24917 14.4375 9.625 14.4375H13.2917C13.6675 14.4375 13.9792 14.7492 13.9792 15.125C13.9792 15.5008 13.6675 15.8125 13.2917 15.8125Z" fill="#00A0D2"/>
<path d="M16.0993 19.4779H5.90594C2.2576 19.4779 1.14844 18.3779 1.14844 14.7662V7.2312C1.14844 3.61953 2.2576 2.51953 5.90594 2.51953H16.0901C19.7384 2.51953 20.8476 3.61953 20.8476 7.2312V14.757C20.8568 18.3779 19.7476 19.4779 16.0993 19.4779ZM5.90594 3.89453C3.0276 3.89453 2.52344 4.38953 2.52344 7.2312V14.757C2.52344 17.5987 3.0276 18.0937 5.90594 18.0937H16.0901C18.9684 18.0937 19.4726 17.5987 19.4726 14.757V7.2312C19.4726 4.38953 18.9684 3.89453 16.0901 3.89453H5.90594Z" fill="#00A0D2"/>
</svg>
