<svg width="36" height="40" viewBox="0 0 36 40" fill="none" xmlns="http://www.w3.org/2000/svg">
<path d="M36 18C36 27.9411 27.9411 36 18 36C8.05887 36 0 27.9411 0 18C0 8.05887 8.05887 0 18 0C27.9411 0 36 8.05887 36 18Z" fill="#00A0D2"/>
<path d="M18 40L13.6699 32.5H22.3301L18 40Z" fill="#00A0D2"/>
<g clip-path="url(#clip0_2622_255362)">
<path d="M21.3359 22.1667C21.3359 22.6087 21.5115 23.0326 21.8241 23.3452C22.1367 23.6577 22.5606 23.8333 23.0026 23.8333C23.4446 23.8333 23.8686 23.6577 24.1811 23.3452C24.4937 23.0326 24.6693 22.6087 24.6693 22.1667C24.6693 21.7246 24.4937 21.3007 24.1811 20.9882C23.8686 20.6756 23.4446 20.5 23.0026 20.5C22.5606 20.5 22.1367 20.6756 21.8241 20.9882C21.5115 21.3007 21.3359 21.7246 21.3359 22.1667Z" stroke="white" stroke-width="1.5" stroke-linecap="round" stroke-linejoin="round"/>
<path d="M12.1667 21.3346V22.168C12.1667 22.61 12.3423 23.0339 12.6548 23.3465C12.9674 23.659 13.3913 23.8346 13.8333 23.8346C14.2754 23.8346 14.6993 23.659 15.0118 23.3465C15.3244 23.0339 15.5 22.61 15.5 22.168V18.0013H13C12.337 18.0013 11.7011 18.2647 11.2322 18.7335C10.7634 19.2024 10.5 19.8383 10.5 20.5013V21.3346H18.8333C19.1422 20.4423 19.6975 19.6556 20.4348 19.0657C21.1722 18.4758 22.0616 18.1067 23 18.0013V13.8346C23 13.3926 22.8244 12.9687 22.5118 12.6561C22.1993 12.3436 21.7754 12.168 21.3333 12.168H20.5" stroke="white" stroke-width="1.5" stroke-linecap="round" stroke-linejoin="round"/>
<path d="M13 15.5H15.5" stroke="white" stroke-width="1.5" stroke-linecap="round" stroke-linejoin="round"/>
</g>
<defs>
<clipPath id="clip0_2622_255362">
<rect width="20" height="20" fill="white" transform="translate(8 8)"/>
</clipPath>
</defs>
</svg>
