<svg width="22" height="22" viewBox="0 0 22 22" fill="none" xmlns="http://www.w3.org/2000/svg">
<path d="M7.48347 20.1654C3.65181 20.1654 2.88181 17.8462 4.12847 15.0229L8.02431 6.17703H7.74931C7.15347 6.17703 6.60347 5.9387 6.20931 5.54453C5.80597 5.15036 5.56764 4.60036 5.56764 4.00453C5.56764 2.81286 6.53931 1.83203 7.74014 1.83203H14.2576C14.8626 1.83203 15.4035 2.07953 15.7976 2.4737C16.311 2.98703 16.5676 3.7387 16.3751 4.5362C16.1276 5.5262 15.1743 6.17703 14.1568 6.17703H14.0101L17.8785 15.032C19.116 17.8554 18.3093 20.1654 14.5143 20.1654H7.48347Z" stroke="#00A0D2" stroke-width="1.5" stroke-linecap="round" stroke-linejoin="round"/>
<path d="M5.44531 12.0248C5.44531 12.0248 8.25031 11.9148 11.0003 12.8315C13.7503 13.7481 16.3445 12.0156 16.3445 12.0156" stroke="#00A0D2" stroke-width="1.5" stroke-linecap="round" stroke-linejoin="round"/>
</svg>
