<svg width="22" height="22" viewBox="0 0 22 22" fill="none" xmlns="http://www.w3.org/2000/svg">
<path d="M19.7018 10.9982C19.9951 10.0632 20.1693 9.05487 20.1693 7.96403C20.1693 5.13154 17.8868 2.83984 15.0726 2.83984C13.4043 2.83984 11.9284 3.64656 11.0026 4.89322C10.0768 3.64656 8.59177 2.83984 6.9326 2.83984C4.11844 2.83984 1.83594 5.13154 1.83594 7.96403C1.83594 14.3807 7.77594 18.1665 10.4343 19.0832C10.5901 19.1382 10.7918 19.1657 11.0026 19.1657" stroke="#00A0D2" stroke-width="1.5" stroke-linecap="round" stroke-linejoin="round"/>
<path d="M17.6088 14.4276L14.3638 17.6727C14.2355 17.801 14.1163 18.0393 14.0888 18.2135L13.9146 19.4509C13.8505 19.9001 14.1621 20.2118 14.6113 20.1476L15.8488 19.9734C16.023 19.9459 16.2705 19.8268 16.3896 19.6985L19.6346 16.4535C20.1938 15.8943 20.4596 15.2434 19.6346 14.4184C18.8188 13.6026 18.168 13.8685 17.6088 14.4276Z" stroke="#00A0D2" stroke-width="1.5" stroke-miterlimit="10" stroke-linecap="round" stroke-linejoin="round"/>
<path d="M17.1406 14.8945C17.4156 15.8845 18.1856 16.6545 19.1756 16.9295" stroke="#00A0D2" stroke-width="1.5" stroke-miterlimit="10" stroke-linecap="round" stroke-linejoin="round"/>
</svg>
