<svg width="36" height="40" viewBox="0 0 36 40" fill="none" xmlns="http://www.w3.org/2000/svg">
<path d="M36 18C36 27.9411 27.9411 36 18 36C8.05887 36 0 27.9411 0 18C0 8.05887 8.05887 0 18 0C27.9411 0 36 8.05887 36 18Z" fill="#00A0D2"/>
<path d="M18 40L13.6699 32.5H22.3301L18 40Z" fill="#00A0D2"/>
<g clip-path="url(#clip0_2622_255359)">
<path d="M12.1641 22.1667C12.1641 22.6087 12.3397 23.0326 12.6522 23.3452C12.9648 23.6577 13.3887 23.8333 13.8307 23.8333C14.2728 23.8333 14.6967 23.6577 15.0092 23.3452C15.3218 23.0326 15.4974 22.6087 15.4974 22.1667C15.4974 21.7246 15.3218 21.3007 15.0092 20.9882C14.6967 20.6756 14.2728 20.5 13.8307 20.5C13.3887 20.5 12.9648 20.6756 12.6522 20.9882C12.3397 21.3007 12.1641 21.7246 12.1641 22.1667Z" stroke="white" stroke-width="1.5" stroke-linecap="round" stroke-linejoin="round"/>
<path d="M20.5 22.1667C20.5 22.6087 20.6756 23.0326 20.9882 23.3452C21.3007 23.6577 21.7246 23.8333 22.1667 23.8333C22.6087 23.8333 23.0326 23.6577 23.3452 23.3452C23.6577 23.0326 23.8333 22.6087 23.8333 22.1667C23.8333 21.7246 23.6577 21.3007 23.3452 20.9882C23.0326 20.6756 22.6087 20.5 22.1667 20.5C21.7246 20.5 21.3007 20.6756 20.9882 20.9882C20.6756 21.3007 20.5 21.7246 20.5 22.1667Z" stroke="white" stroke-width="1.5" stroke-linecap="round" stroke-linejoin="round"/>
<path d="M12.1667 22.168H10.5V13.0013C10.5 12.7803 10.5878 12.5683 10.7441 12.412C10.9004 12.2558 11.1123 12.168 11.3333 12.168H18.8333V22.168M15.5 22.168H20.5M23.8333 22.168H25.5V17.168M25.5 17.168H18.8333M25.5 17.168L23 13.0013H18.8333" stroke="white" stroke-width="1.5" stroke-linecap="round" stroke-linejoin="round"/>
</g>
<defs>
<clipPath id="clip0_2622_255359">
<rect width="20" height="20" fill="white" transform="translate(8 8)"/>
</clipPath>
</defs>
</svg>
