<svg width="36" height="40" viewBox="0 0 36 40" fill="none" xmlns="http://www.w3.org/2000/svg">
<path d="M36 18C36 27.9411 27.9411 36 18 36C8.05887 36 0 27.9411 0 18C0 8.05887 8.05887 0 18 0C27.9411 0 36 8.05887 36 18Z" fill="#1F1F1F"/>
<path d="M18 40L13.6699 32.5H22.3301L18 40Z" fill="#1F1F1F"/>
<g clip-path="url(#clip0_2622_255365)">
<path d="M14.6641 13.8333C14.6641 14.7174 15.0153 15.5652 15.6404 16.1904C16.2655 16.8155 17.1133 17.1667 17.9974 17.1667C18.8815 17.1667 19.7293 16.8155 20.3544 16.1904C20.9795 15.5652 21.3307 14.7174 21.3307 13.8333C21.3307 12.9493 20.9795 12.1014 20.3544 11.4763C19.7293 10.8512 18.8815 10.5 17.9974 10.5C17.1133 10.5 16.2655 10.8512 15.6404 11.4763C15.0153 12.1014 14.6641 12.9493 14.6641 13.8333Z" stroke="white" stroke-width="1.5" stroke-linecap="round" stroke-linejoin="round"/>
<path d="M13 25.5V23.8333C13 22.9493 13.3512 22.1014 13.9763 21.4763C14.6014 20.8512 15.4493 20.5 16.3333 20.5H19.6667C20.5507 20.5 21.3986 20.8512 22.0237 21.4763C22.6488 22.1014 23 22.9493 23 23.8333V25.5" stroke="white" stroke-width="1.5" stroke-linecap="round" stroke-linejoin="round"/>
</g>
<defs>
<clipPath id="clip0_2622_255365">
<rect width="20" height="20" fill="white" transform="translate(8 8)"/>
</clipPath>
</defs>
</svg>
