<svg width="22" height="22" viewBox="0 0 22 22" fill="none" xmlns="http://www.w3.org/2000/svg">
<path d="M18.3073 9.16797H3.64062V16.5013C3.64062 19.2513 4.55729 20.168 7.30729 20.168H14.6406C17.3906 20.168 18.3073 19.2513 18.3073 16.5013V9.16797Z" stroke="#00A0D2" stroke-width="1.5" stroke-miterlimit="10" stroke-linecap="round" stroke-linejoin="round"/>
<path d="M19.7057 6.41536V7.33203C19.7057 8.34036 19.2199 9.16536 17.8724 9.16536H4.1224C2.7199 9.16536 2.28906 8.34036 2.28906 7.33203V6.41536C2.28906 5.40703 2.7199 4.58203 4.1224 4.58203H17.8724C19.2199 4.58203 19.7057 5.40703 19.7057 6.41536Z" stroke="#00A0D2" stroke-width="1.5" stroke-miterlimit="10" stroke-linecap="round" stroke-linejoin="round"/>
<path d="M10.6699 4.58365H5.60988C5.29822 4.24448 5.30738 3.72198 5.63738 3.39198L6.93905 2.09031C7.27822 1.75115 7.83738 1.75115 8.17655 2.09031L10.6699 4.58365Z" stroke="#00A0D2" stroke-width="1.5" stroke-miterlimit="10" stroke-linecap="round" stroke-linejoin="round"/>
<path d="M16.3803 4.58365H11.3203L13.8136 2.09031C14.1528 1.75115 14.712 1.75115 15.0511 2.09031L16.3528 3.39198C16.6828 3.72198 16.692 4.24448 16.3803 4.58365Z" stroke="#00A0D2" stroke-width="1.5" stroke-miterlimit="10" stroke-linecap="round" stroke-linejoin="round"/>
<path d="M8.19531 9.16797V13.8796C8.19531 14.613 9.00198 15.0438 9.61615 14.6496L10.4778 14.0813C10.7895 13.8796 11.1836 13.8796 11.4861 14.0813L12.302 14.6313C12.907 15.0346 13.7228 14.6038 13.7228 13.8705V9.16797H8.19531Z" stroke="#00A0D2" stroke-width="1.5" stroke-miterlimit="10" stroke-linecap="round" stroke-linejoin="round"/>
</svg>
