<svg width="22" height="22" viewBox="0 0 22 22" fill="none" xmlns="http://www.w3.org/2000/svg">
<path d="M8.39635 9.96286C8.30469 9.9537 8.19469 9.9537 8.09385 9.96286C5.91219 9.88953 4.17969 8.10203 4.17969 5.90203C4.17969 3.6562 5.99469 1.83203 8.24969 1.83203C10.4955 1.83203 12.3197 3.6562 12.3197 5.90203C12.3105 8.10203 10.578 9.88953 8.39635 9.96286Z" stroke="#00A0D2" stroke-width="1.5" stroke-linecap="round" stroke-linejoin="round"/>
<path d="M15.041 3.66797C16.8194 3.66797 18.2494 5.10714 18.2494 6.8763C18.2494 8.6088 16.8744 10.0205 15.1602 10.0846C15.0869 10.0755 15.0044 10.0755 14.9219 10.0846" stroke="#00A0D2" stroke-width="1.5" stroke-linecap="round" stroke-linejoin="round"/>
<path d="M3.81219 13.348C1.59385 14.833 1.59385 17.253 3.81219 18.7288C6.33302 20.4155 10.4672 20.4155 12.988 18.7288C15.2064 17.2438 15.2064 14.8238 12.988 13.348C10.4764 11.6705 6.34219 11.6705 3.81219 13.348Z" stroke="#00A0D2" stroke-width="1.5" stroke-linecap="round" stroke-linejoin="round"/>
<path d="M16.8125 18.332C17.4725 18.1945 18.0958 17.9287 18.6092 17.5345C20.0392 16.462 20.0392 14.6929 18.6092 13.6204C18.105 13.2354 17.4908 12.9787 16.84 12.832" stroke="#00A0D2" stroke-width="1.5" stroke-linecap="round" stroke-linejoin="round"/>
</svg>
