<svg width="22" height="22" viewBox="0 0 22 22" fill="none" xmlns="http://www.w3.org/2000/svg">
<path d="M11.0026 20.8529C5.56677 20.8529 1.14844 16.4345 1.14844 10.9987C1.14844 5.56286 5.56677 1.14453 11.0026 1.14453C16.4384 1.14453 20.8568 5.56286 20.8568 10.9987C20.8568 16.4345 16.4384 20.8529 11.0026 20.8529ZM11.0026 2.51953C6.3276 2.51953 2.52344 6.3237 2.52344 10.9987C2.52344 15.6737 6.3276 19.4779 11.0026 19.4779C15.6776 19.4779 19.4818 15.6737 19.4818 10.9987C19.4818 6.3237 15.6776 2.51953 11.0026 2.51953Z" fill="#00A0D2"/>
<path d="M11 12.6029C10.6242 12.6029 10.3125 12.2912 10.3125 11.9154V7.33203C10.3125 6.9562 10.6242 6.64453 11 6.64453C11.3758 6.64453 11.6875 6.9562 11.6875 7.33203V11.9154C11.6875 12.2912 11.3758 12.6029 11 12.6029Z" fill="#00A0D2"/>
<path d="M11.0026 15.5827C10.8834 15.5827 10.7643 15.5552 10.6543 15.5093C10.5443 15.4635 10.4434 15.3993 10.3518 15.3168C10.2693 15.2252 10.2051 15.1335 10.1593 15.0143C10.1134 14.9043 10.0859 14.7852 10.0859 14.666C10.0859 14.5468 10.1134 14.4277 10.1593 14.3177C10.2051 14.2077 10.2693 14.1068 10.3518 14.0152C10.4434 13.9327 10.5443 13.8685 10.6543 13.8227C10.8743 13.731 11.1309 13.731 11.3509 13.8227C11.4609 13.8685 11.5618 13.9327 11.6534 14.0152C11.7359 14.1068 11.8001 14.2077 11.8459 14.3177C11.8918 14.4277 11.9193 14.5468 11.9193 14.666C11.9193 14.7852 11.8918 14.9043 11.8459 15.0143C11.8001 15.1335 11.7359 15.2252 11.6534 15.3168C11.5618 15.3993 11.4609 15.4635 11.3509 15.5093C11.2409 15.5552 11.1218 15.5827 11.0026 15.5827Z" fill="#00A0D2"/>
</svg>
