<svg width="22" height="22" viewBox="0 0 22 22" fill="none" xmlns="http://www.w3.org/2000/svg">
<path d="M4.78125 3.44531H17.2257V17.4109C17.2257 18.2412 16.2723 18.7099 15.6149 18.2027L14.6729 17.4761C14.3381 17.2178 13.8771 17.198 13.5214 17.4267L12.085 18.3501C11.4262 18.7736 10.5808 18.7736 9.92196 18.3501L8.48556 17.4267C8.12987 17.198 7.6688 17.2178 7.334 17.4761L6.39205 18.2027C5.73463 18.7099 4.78125 18.2412 4.78125 17.4109V3.44531Z" stroke="#00A0D2" stroke-width="1.5"/>
<path d="M8.33594 8.77648H11.0026" stroke="#00A0D2" stroke-width="1.5" stroke-linecap="round" stroke-linejoin="round"/>
<path d="M3 3.44444H19" stroke="#00A0D2" stroke-width="1.5" stroke-linecap="round" stroke-linejoin="round"/>
<path d="M8.33594 12.3351H11.0026" stroke="#00A0D2" stroke-width="1.5" stroke-linecap="round" stroke-linejoin="round"/>
<path d="M13.6641 8.77648H14.1085" stroke="#00A0D2" stroke-width="1.5" stroke-linecap="round" stroke-linejoin="round"/>
<path d="M13.6641 12.3351H14.1085" stroke="#00A0D2" stroke-width="1.5" stroke-linecap="round" stroke-linejoin="round"/>
</svg>
