<svg width="24" height="24" viewBox="0 0 24 24" fill="none" xmlns="http://www.w3.org/2000/svg">
<path d="M22 1H2V18.6H7.55556V23L12 18.6H17.5556L22 14.2V1Z" stroke="white" stroke-width="2" stroke-linecap="round" stroke-linejoin="round"/>
<path d="M9.11623 14.0192C9.75548 14.0192 10.2737 13.4914 10.2737 12.8402C10.2737 12.1891 9.75548 11.6613 9.11623 11.6613C8.47698 11.6613 7.95877 12.1891 7.95877 12.8402C7.95877 13.4914 8.47698 14.0192 9.11623 14.0192Z" fill="white"/>
<path d="M14.9185 7.10399C15.1037 6.59114 15.8155 6.59114 16.0065 7.10399L16.62 8.7958C16.6778 8.95497 16.8052 9.08465 16.9614 9.1436L18.6224 9.76845C19.1259 9.95709 19.1259 10.6822 18.6224 10.8767L16.9614 11.5015C16.8052 11.5605 16.6778 11.6902 16.62 11.8493L16.0065 13.5411C15.8213 14.054 15.1095 14.054 14.9185 13.5411L14.305 11.8493C14.2472 11.6902 14.1198 11.5605 13.9636 11.5015L12.3026 10.8767C11.7991 10.688 11.7991 9.96298 12.3026 9.76845L13.9636 9.1436C14.1198 9.08465 14.2472 8.95497 14.305 8.7958L14.9185 7.10399Z" fill="white"/>
<path d="M6.83603 5.31042C7.02122 4.79757 7.73306 4.79757 7.92404 5.31042L8.22498 6.14159C8.28286 6.30075 8.41018 6.43044 8.56643 6.48939L9.38245 6.79592C9.88594 6.98455 9.88594 7.70962 9.38245 7.90415L8.56643 8.21068C8.41018 8.26962 8.28286 8.39931 8.22498 8.55847L7.92404 9.38964C7.73885 9.90249 7.02701 9.90249 6.83603 9.38964L6.53509 8.55847C6.47721 8.39931 6.34989 8.26962 6.19363 8.21068L5.37762 7.90415C4.87413 7.71551 4.87413 6.99045 5.37762 6.79592L6.19363 6.48939C6.34989 6.43044 6.47721 6.30075 6.53509 6.14159L6.83603 5.31042Z" fill="white"/>
</svg>
