<svg width="24" height="24" viewBox="0 0 24 24" fill="none" xmlns="http://www.w3.org/2000/svg">
<g clip-path="url(#clip0_725_27897)">
<path d="M2 2V18.6H7.55556V23L12 18.6H17.5556" stroke="white" stroke-width="2" stroke-linecap="round" stroke-linejoin="round"/>
<path d="M9.11979 14.0181C10.1222 14.0181 10.9349 13.4902 10.9349 12.8391C10.9349 12.188 10.1222 11.6602 9.11979 11.6602C8.11734 11.6602 7.30469 12.188 7.30469 12.8391C7.30469 13.4902 8.11734 14.0181 9.11979 14.0181Z" fill="white"/>
<path d="M1 1L23 23" stroke="white" stroke-width="2" stroke-linecap="round" stroke-linejoin="round"/>
<path d="M6 1H22V14.2L21 15" stroke="white" stroke-width="2" stroke-linecap="round" stroke-linejoin="round"/>
<path d="M9.62012 8.11914L9.24121 8.20996C8.99617 8.26891 8.79583 8.39943 8.70508 8.55859L8.2334 9.38965C7.94277 9.90217 6.82692 9.90224 6.52734 9.38965L6.05566 8.55859C5.96491 8.39943 5.76457 8.26891 5.51953 8.20996L4.24023 7.9043C3.45075 7.71566 3.45085 6.99049 4.24023 6.7959L5.51953 6.48926C5.76451 6.43032 5.96488 6.30071 6.05566 6.1416L6.52734 5.31055C6.56027 5.25241 6.60449 5.20121 6.65625 5.15625L9.62012 8.11914Z" fill="white"/>
<path d="M15.4248 13.9219C15.2142 13.907 15.0096 13.7814 14.9199 13.541L14.8486 13.3457L15.4248 13.9219ZM14.9199 7.10352C15.1051 6.59068 15.8168 6.59071 16.0078 7.10352L16.6221 8.79492C16.6799 8.95395 16.8068 9.08356 16.9629 9.14258L18.624 9.76758C19.1275 9.95621 19.1275 10.6814 18.624 10.876L16.9629 11.501C16.8068 11.5599 16.6799 11.6897 16.6221 11.8486L16.5498 12.0469L13.7324 9.22949L13.9658 9.14258C14.1218 9.08353 14.2488 8.95389 14.3066 8.79492L14.9199 7.10352ZM12.4229 10.9199L12.3047 10.876C12.0936 10.7969 11.9716 10.6236 11.9375 10.4346L12.4229 10.9199Z" fill="white"/>
</g>
<defs>
<clipPath id="clip0_725_27897">
<rect width="24" height="24" fill="white"/>
</clipPath>
</defs>
</svg>
