<svg width="22" height="22" viewBox="0 0 22 22" fill="none" xmlns="http://www.w3.org/2000/svg">
<path d="M10.9974 10.9987C13.5287 10.9987 15.5807 8.94667 15.5807 6.41536C15.5807 3.88406 13.5287 1.83203 10.9974 1.83203C8.46609 1.83203 6.41406 3.88406 6.41406 6.41536C6.41406 8.94667 8.46609 10.9987 10.9974 10.9987Z" stroke="#00A0D2" stroke-width="1.5" stroke-linecap="round" stroke-linejoin="round"/>
<path d="M3.125 20.1667C3.125 16.6192 6.65416 13.75 10.9992 13.75C11.8792 13.75 12.7317 13.8692 13.5292 14.0892" stroke="#00A0D2" stroke-width="1.5" stroke-linecap="round" stroke-linejoin="round"/>
<path d="M20.1693 16.4987C20.1693 17.1862 19.9768 17.837 19.6376 18.387C19.4451 18.717 19.1976 19.0104 18.9134 19.2487C18.2718 19.8262 17.4284 20.1654 16.5026 20.1654C15.1643 20.1654 14.0001 19.4504 13.3676 18.387C13.0284 17.837 12.8359 17.1862 12.8359 16.4987C12.8359 15.3437 13.3676 14.3079 14.2109 13.6387C14.8434 13.1345 15.6409 12.832 16.5026 12.832C18.5284 12.832 20.1693 14.4729 20.1693 16.4987Z" stroke="#00A0D2" stroke-width="1.5" stroke-miterlimit="10" stroke-linecap="round" stroke-linejoin="round"/>
<path d="M15.0703 16.4999L15.9778 17.4074L17.9303 15.6016" stroke="#00A0D2" stroke-width="1.5" stroke-linecap="round" stroke-linejoin="round"/>
</svg>
