<svg width="63" height="63" viewBox="0 0 63 63" fill="none" xmlns="http://www.w3.org/2000/svg">
<path d="M52.9994 36.9091L50.0332 31.9741C49.3769 30.8978 48.7994 28.8241 48.7994 27.5641V22.6553C48.7994 13.1266 41.0557 5.38281 31.5532 5.38281C22.0244 5.40906 14.2807 13.1266 14.2807 22.6553V27.5378C14.2807 28.7978 13.7032 30.8716 13.0732 31.9478L10.1069 36.8828C8.97815 38.7991 8.71565 40.9778 9.4244 42.8678C10.1332 44.7841 11.7344 46.3066 13.8344 46.9891C16.6694 47.9341 19.5307 48.6166 22.4444 49.1153C22.7332 49.1678 23.0219 49.1941 23.3107 49.2466C23.6782 49.2991 24.0719 49.3516 24.4657 49.4041C25.1482 49.5091 25.8307 49.5878 26.5394 49.6403C28.1932 49.7978 29.8732 49.8766 31.5532 49.8766C33.2069 49.8766 34.8607 49.7978 36.4882 49.6403C37.0919 49.5878 37.6957 49.5353 38.2732 49.4566C38.7457 49.4041 39.2182 49.3516 39.6907 49.2728C39.9794 49.2466 40.2682 49.1941 40.5569 49.1416C43.4969 48.6691 46.4107 47.9341 49.2457 46.9891C51.2669 46.3066 52.8157 44.7841 53.5507 42.8416C54.2857 40.8728 54.0757 38.7203 52.9994 36.9091ZM33.4694 26.2516C33.4694 27.3541 32.5769 28.2466 31.4744 28.2466C30.3719 28.2466 29.4794 27.3541 29.4794 26.2516V18.1141C29.4794 17.0116 30.3719 16.1191 31.4744 16.1191C32.5769 16.1191 33.4694 17.0116 33.4694 18.1141V26.2516Z" fill="url(#paint0_linear_2632_257379)"/>
<path d="M38.925 52.5263C37.8225 55.5713 34.9087 57.75 31.4962 57.75C29.4225 57.75 27.375 56.91 25.9312 55.4138C25.0912 54.6263 24.4613 53.5762 24.0938 52.5C24.435 52.5525 24.7762 52.5787 25.1437 52.6312C25.7475 52.71 26.3775 52.7887 27.0075 52.8412C28.5037 52.9725 30.0263 53.0512 31.5488 53.0512C33.045 53.0512 34.5412 52.9725 36.0112 52.8412C36.5625 52.7887 37.1138 52.7625 37.6388 52.6837C38.0588 52.6312 38.4787 52.5788 38.925 52.5263Z" fill="url(#paint1_linear_2632_257379)"/>
<defs>
<linearGradient id="paint0_linear_2632_257379" x1="31.5077" y1="5.38281" x2="31.5077" y2="49.8766" gradientUnits="userSpaceOnUse">
<stop stop-color="white"/>
<stop offset="1" stop-color="white" stop-opacity="0.2"/>
</linearGradient>
<linearGradient id="paint1_linear_2632_257379" x1="31.9971" y1="51.5" x2="30.9971" y2="61.5" gradientUnits="userSpaceOnUse">
<stop stop-color="white" stop-opacity="0"/>
<stop offset="1" stop-color="white" stop-opacity="0.6"/>
</linearGradient>
</defs>
</svg>
