<svg width="63" height="63" viewBox="0 0 63 63" fill="none" xmlns="http://www.w3.org/2000/svg">
<path d="M51.9719 6.94864L34.7374 0.493534C32.9513 -0.164511 30.0371 -0.164511 28.2509 0.493534L11.0164 6.94864C7.69485 8.20206 5 12.0877 5 15.6286V41.0103C5 43.5485 6.66078 46.9014 8.69759 48.4055L25.9321 61.2844C28.9716 63.5719 33.954 63.5719 36.9935 61.2844L54.2281 48.4055C56.2649 46.8701 57.9256 43.5485 57.9256 41.0103V15.6286C57.957 12.0877 55.2621 8.20206 51.9719 6.94864ZM42.3832 24.4965L28.909 37.9708C28.4389 38.4408 27.8436 38.6602 27.2482 38.6602C26.6528 38.6602 26.0574 38.4408 25.5874 37.9708L20.5737 32.8944C19.665 31.9857 19.665 30.4816 20.5737 29.5729C21.4825 28.6641 22.9866 28.6641 23.8953 29.5729L27.2795 32.9571L39.093 21.1436C40.0017 20.2349 41.5058 20.2349 42.4146 21.1436C43.3233 22.0523 43.3233 23.5878 42.3832 24.4965Z" fill="url(#paint0_linear_2632_257402)"/>
<defs>
<linearGradient id="paint0_linear_2632_257402" x1="23" y1="6" x2="41" y2="74" gradientUnits="userSpaceOnUse">
<stop stop-color="white"/>
<stop offset="1" stop-color="white" stop-opacity="0"/>
</linearGradient>
</defs>
</svg>
