<svg width="63" height="63" viewBox="0 0 63 63" fill="none" xmlns="http://www.w3.org/2000/svg">
<path d="M56.4375 40.6875C57.1725 40.6875 57.75 41.265 57.75 42V44.625C57.75 48.9825 54.2325 52.5 49.875 52.5C49.875 48.1688 46.3312 44.625 42 44.625C37.6688 44.625 34.125 48.1688 34.125 52.5H28.875C28.875 48.1688 25.3312 44.625 21 44.625C16.6688 44.625 13.125 48.1688 13.125 52.5C8.7675 52.5 5.25 48.9825 5.25 44.625V39.375C5.25 37.9313 6.43125 36.75 7.875 36.75H32.8125C36.435 36.75 39.375 33.81 39.375 30.1875V15.75C39.375 14.3062 40.5563 13.125 42 13.125H44.205C46.095 13.125 47.8275 14.1488 48.7725 15.7763L50.4525 18.7163C50.6888 19.1363 50.3737 19.6875 49.875 19.6875C46.2525 19.6875 43.3125 22.6275 43.3125 26.25V34.125C43.3125 37.7475 46.2525 40.6875 49.875 40.6875H56.4375Z" fill="url(#paint0_linear_2632_257373)"/>
<path d="M21 57.75C23.8995 57.75 26.25 55.3995 26.25 52.5C26.25 49.6005 23.8995 47.25 21 47.25C18.1005 47.25 15.75 49.6005 15.75 52.5C15.75 55.3995 18.1005 57.75 21 57.75Z" fill="url(#paint1_linear_2632_257373)"/>
<path d="M42 57.75C44.8995 57.75 47.25 55.3995 47.25 52.5C47.25 49.6005 44.8995 47.25 42 47.25C39.1005 47.25 36.75 49.6005 36.75 52.5C36.75 55.3995 39.1005 57.75 42 57.75Z" fill="url(#paint2_linear_2632_257373)"/>
<path d="M57.75 32.8912V36.75H49.875C48.4313 36.75 47.25 35.5688 47.25 34.125V26.25C47.25 24.8062 48.4313 23.625 49.875 23.625H53.2613L57.0675 30.2925C57.5138 31.08 57.75 31.9725 57.75 32.8912Z" fill="url(#paint3_linear_2632_257373)"/>
<path d="M34.335 5.25H14.9362C9.58125 5.25 5.25 9.58125 5.25 14.9362V31.6838C5.25 33.1275 6.43125 34.3088 7.875 34.3088H31.8937C34.5712 34.3088 36.75 32.13 36.75 29.4525V7.665C36.75 6.32625 35.6737 5.25 34.335 5.25ZM26.4338 18.5588L20.9475 23.8612C20.5538 24.2288 20.055 24.4125 19.5825 24.4125C19.0838 24.4125 18.585 24.2288 18.2175 23.8612L15.5662 21.3412C14.7787 20.58 14.7525 19.32 15.5138 18.5325C16.2487 17.745 17.5087 17.745 18.2962 18.48L19.5825 19.7138L23.7037 15.7237C24.4912 14.9625 25.725 14.9888 26.4862 15.7763C27.2475 16.5638 27.2213 17.7975 26.4338 18.5588Z" fill="url(#paint4_linear_2632_257373)"/>
<defs>
<linearGradient id="paint0_linear_2632_257373" x1="31.5" y1="5.25" x2="31.5" y2="57.75" gradientUnits="userSpaceOnUse">
<stop stop-color="white"/>
<stop offset="1" stop-color="white" stop-opacity="0.1"/>
</linearGradient>
<linearGradient id="paint1_linear_2632_257373" x1="31.5" y1="5.25" x2="31.5" y2="57.75" gradientUnits="userSpaceOnUse">
<stop stop-color="white"/>
<stop offset="1" stop-color="white" stop-opacity="0.1"/>
</linearGradient>
<linearGradient id="paint2_linear_2632_257373" x1="31.5" y1="5.25" x2="31.5" y2="57.75" gradientUnits="userSpaceOnUse">
<stop stop-color="white"/>
<stop offset="1" stop-color="white" stop-opacity="0.1"/>
</linearGradient>
<linearGradient id="paint3_linear_2632_257373" x1="31.5" y1="5.25" x2="31.5" y2="57.75" gradientUnits="userSpaceOnUse">
<stop stop-color="white"/>
<stop offset="1" stop-color="white" stop-opacity="0.1"/>
</linearGradient>
<linearGradient id="paint4_linear_2632_257373" x1="31.5" y1="5.25" x2="31.5" y2="57.75" gradientUnits="userSpaceOnUse">
<stop stop-color="white"/>
<stop offset="1" stop-color="white" stop-opacity="0.1"/>
</linearGradient>
</defs>
</svg>
