<svg width="52" height="63" viewBox="0 0 52 63" fill="none" xmlns="http://www.w3.org/2000/svg">
<path d="M0 51.8575C0 60.7065 11.9027 63.0001 26 63.0001C40.0225 63.0001 52 60.7878 52 51.9356C52 43.0866 40.1005 40.793 26 40.793C11.9775 40.793 0 43.0052 0 51.8575Z" fill="url(#paint0_linear_2632_257365)"/>
<path d="M26.0023 34.4298C35.5544 34.4298 43.2078 26.7683 43.2078 17.2133C43.2078 7.6583 35.5544 0 26.0023 0C16.4535 0 8.79688 7.6583 8.79688 17.2133C8.79688 26.7683 16.4535 34.4298 26.0023 34.4298Z" fill="url(#paint1_linear_2632_257365)"/>
<defs>
<linearGradient id="paint0_linear_2632_257365" x1="25.7936" y1="24.787" x2="25.7937" y2="57.8362" gradientUnits="userSpaceOnUse">
<stop stop-color="white" stop-opacity="0"/>
<stop offset="1" stop-color="white" stop-opacity="0.7"/>
</linearGradient>
<linearGradient id="paint1_linear_2632_257365" x1="25.7959" y1="0" x2="25.7959" y2="34.082" gradientUnits="userSpaceOnUse">
<stop stop-color="white"/>
<stop offset="1" stop-color="white" stop-opacity="0.2"/>
</linearGradient>
</defs>
</svg>
