<svg width="63" height="63" viewBox="0 0 63 63" fill="none" xmlns="http://www.w3.org/2000/svg">
<path d="M36.1201 8.89844C37.3539 6.82477 40.0318 6.08951 42.1055 7.32324L46.6465 9.92188C49.0352 11.2869 49.8483 14.3582 48.4834 16.7207C46.0947 20.842 48.0378 24.2021 52.7891 24.2021C55.5188 24.2023 57.7762 26.4335 57.7764 29.1895V33.8096C57.7764 36.5395 55.5452 38.7967 52.7891 38.7969C48.0379 38.7969 46.0949 42.1572 48.4834 46.2783C49.8484 48.667 49.0351 51.7121 46.6465 53.0771L42.1055 55.6758C40.0317 56.9095 37.3539 56.1743 36.1201 54.1006L35.8311 53.6025C33.4686 49.4813 29.5841 49.4813 27.1953 53.6025L26.9062 54.1006C25.6725 56.1743 22.9946 56.9095 20.9209 55.6758L16.3799 53.0771C13.9912 51.7121 13.178 48.6408 14.543 46.2783C16.9314 42.1572 14.9884 38.7969 10.2373 38.7969C7.48114 38.7968 5.25 36.5395 5.25 33.8096V29.1895C5.25017 26.4597 7.48125 24.2023 10.2373 24.2021C14.9886 24.2021 16.9317 20.842 14.543 16.7207C13.178 14.3582 13.9911 11.2869 16.3799 9.92188L20.9209 7.32324C22.9946 6.0895 25.6725 6.82474 26.9062 8.89844L27.1953 9.39746C29.5578 13.5184 33.4423 13.5184 35.8311 9.39746L36.1201 8.89844ZM31.4688 23.9678C27.3266 23.9678 23.9688 27.3256 23.9688 31.4678C23.9688 35.6099 27.3266 38.9678 31.4688 38.9678C35.6109 38.9678 38.9688 35.6099 38.9688 31.4678C38.9688 27.3256 35.6109 23.9678 31.4688 23.9678Z" fill="url(#paint0_linear_2632_257410)"/>
<defs>
<linearGradient id="paint0_linear_2632_257410" x1="23.5" y1="6.99902" x2="42.5" y2="62.499" gradientUnits="userSpaceOnUse">
<stop stop-color="white"/>
<stop offset="1" stop-color="white" stop-opacity="0"/>
</linearGradient>
</defs>
</svg>
