<svg width="63" height="63" viewBox="0 0 63 63" fill="none" xmlns="http://www.w3.org/2000/svg">
<path d="M48.4823 44.1787L49.5061 52.4738C49.7686 54.6525 47.4323 56.175 45.5686 55.0462L36.4861 49.6387C35.8561 49.2712 35.6986 48.4837 36.0398 47.8537C37.3523 45.4387 38.0611 42.7087 38.0611 39.9787C38.0611 30.3712 29.8186 22.5487 19.6861 22.5487C17.6123 22.5487 15.5911 22.8638 13.7011 23.4937C12.7298 23.8088 11.7848 22.9163 12.0211 21.9188C14.4098 12.3638 23.5973 5.25 34.5698 5.25C47.3798 5.25 57.7486 14.9362 57.7486 26.88C57.7486 33.9675 54.0998 40.2412 48.4823 44.1787Z" fill="url(#paint0_linear_2632_257388)"/>
<path d="M19.5 25C28.0673 25 35 31.5659 35 39.6729C34.9999 43.0694 33.76 46.2091 31.6748 48.6924C28.8848 52.1178 24.46 54.3164 19.5 54.3164L12.1445 58.7412C10.9046 59.5117 9.32604 58.4548 9.49512 56.999L10.2002 51.376C6.42396 48.7213 4.00016 44.4683 4 39.6729C4 34.6489 6.64895 30.2239 10.707 27.5977C13.2152 25.942 16.2309 25 19.5 25ZM13 38C11.8954 38 11 38.8954 11 40C11 41.1046 11.8954 42 13 42C14.1046 42 15 41.1046 15 40C15 38.8954 14.1046 38 13 38ZM19 38C17.8954 38 17 38.8954 17 40C17 41.1046 17.8954 42 19 42C20.1046 42 21 41.1046 21 40C21 38.8954 20.1046 38 19 38ZM25 38C23.8954 38 23 38.8954 23 40C23 41.1046 23.8954 42 25 42C26.1046 42 27 41.1046 27 40C27 38.8954 26.1046 38 25 38Z" fill="url(#paint1_linear_2632_257388)"/>
<defs>
<linearGradient id="paint0_linear_2632_257388" x1="43.9988" y1="5" x2="26.9988" y2="55" gradientUnits="userSpaceOnUse">
<stop stop-color="white" stop-opacity="0.7"/>
<stop offset="1" stop-color="white" stop-opacity="0.1"/>
</linearGradient>
<linearGradient id="paint1_linear_2632_257388" x1="10.5" y1="29.5" x2="28" y2="59" gradientUnits="userSpaceOnUse">
<stop stop-color="white"/>
<stop offset="1" stop-color="white" stop-opacity="0"/>
</linearGradient>
</defs>
</svg>
