<svg width="250" height="200" viewBox="0 0 250 200" fill="none" xmlns="http://www.w3.org/2000/svg">
<!-- Background clouds -->
<path fill-rule="evenodd" clip-rule="evenodd" d="M207 65C210.866 65 214 68.134 214 72C214 75.866 210.866 79 207 79H167C170.866 79 174 82.134 174 86C174 89.866 170.866 93 167 93H189C192.866 93 196 96.134 196 100C196 103.866 192.866 107 189 107H178.826C173.952 107 170 110.134 170 114C170 116.577 172 118.911 176 121C179.866 121 183 124.134 183 128C183 131.866 179.866 135 176 135H93C89.134 135 86 131.866 86 128C86 124.134 89.134 121 93 121H54C50.134 121 47 117.866 47 114C47 110.134 50.134 107 54 107H94C97.866 107 101 103.866 101 100C101 96.134 97.866 93 94 93H69C65.134 93 62 89.866 62 86C62 82.134 65.134 79 69 79H109C105.134 79 102 75.866 102 72C102 68.134 105.134 65 109 65H207ZM207 93C210.866 93 214 96.134 214 100C214 103.866 210.866 107 207 107C203.134 107 200 103.866 200 100C200 96.134 203.134 93 207 93Z" fill="#F0F2F4"/>

<!-- Magnifier - positioned in center -->
<g transform="translate(56, 56.5)">
<path d="M69.4688 68.25C87.9703 68.25 102.969 53.2515 102.969 34.75C102.969 16.2485 87.9703 1.25 69.4688 1.25C50.9672 1.25 35.9688 16.2485 35.9688 34.75C35.9688 53.2515 50.9672 68.25 69.4688 68.25Z" fill="#F3F7FF" stroke="#00A0D2" stroke-width="2.5"/>
<path fill-rule="evenodd" clip-rule="evenodd" d="M64.1008 60.7439C65.8596 61.0685 67.6489 61.2372 69.4688 61.25C84.1043 61.25 95.9688 49.3855 95.9688 34.75C95.9688 20.1145 84.1043 8.25 69.4688 8.25C65.7091 8.25 62.1323 9.03293 58.8926 10.4446C53.2626 12.8979 48.6503 17.2499 45.8647 22.6919C44.0133 26.3089 42.9688 30.4075 42.9688 34.75C42.9688 38.69 43.8286 42.4292 45.3709 45.7901C46.472 48.1896 47.9209 50.3963 49.6531 52.3456" fill="white"/>
<path d="M64.1008 60.7439C65.8596 61.0685 67.6489 61.2372 69.4688 61.25C84.1043 61.25 95.9688 49.3855 95.9688 34.75C95.9688 20.1145 84.1043 8.25 69.4688 8.25C65.7091 8.25 62.1323 9.03293 58.8926 10.4446C53.2626 12.8979 48.6503 17.2499 45.8647 22.6919C44.0133 26.3089 42.9688 30.4075 42.9688 34.75C42.9688 38.69 43.8286 42.4292 45.3709 45.7901C46.472 48.1896 47.9209 50.3963 49.6531 52.3456" stroke="#00A0D2" stroke-width="2.5" stroke-linecap="round"/>
<path d="M52.7656 55.3242C54.9137 57.0702 57.3406 58.4865 59.9691 59.4961" stroke="#00A0D2" stroke-width="2.5" stroke-linecap="round"/>
<path d="M96.9688 61.25L102.969 67.25" stroke="#00A0D2" stroke-width="2.5"/>
<path fill-rule="evenodd" clip-rule="evenodd" d="M101.998 66.2789C100.105 68.1716 100.105 71.2403 101.998 73.133L113.083 84.2183C114.976 86.111 118.044 86.111 119.937 84.2183C121.83 82.3256 121.83 79.2569 119.937 77.3642L108.852 66.2789C106.959 64.3862 103.89 64.3862 101.998 66.2789Z" fill="#F0F2F4" stroke="#00A0D2" stroke-width="2.5"/>
<path d="M106.969 68.25L117.969 79.25" stroke="white" stroke-width="2.5" stroke-linecap="round"/>
<path fill-rule="evenodd" clip-rule="evenodd" d="M62.9654 23.2505C62.9654 34.8485 72.3674 44.2505 83.9654 44.2505C86.2437 44.2505 88.4373 43.8877 90.4916 43.2167C87.1385 51.5376 78.9879 57.4112 69.4654 57.4112C56.9502 57.4112 46.8047 47.2657 46.8047 34.7505C46.8047 23.4101 55.1351 14.0153 66.0104 12.3516C64.0783 15.5298 62.9654 19.2602 62.9654 23.2505Z" fill="#F0F2F4"/>
<path d="M69.9688 16.25C68.6954 16.25 67.4512 16.3753 66.248 16.6142M62.6135 17.7261C55.7726 20.6008 50.9688 27.3644 50.9688 35.25" stroke="#00A0D2" stroke-width="2.5" stroke-linecap="round"/>
<path d="M123.148 35.0273H114.973M129.473 27.25H112.297H129.473ZM136.473 27.25H134.251H136.473Z" stroke="#00A0D2" stroke-width="2.5" stroke-linecap="round" stroke-linejoin="round"/>
<path d="M33.147 57.0273H24.9712M28.4712 48.25H11.2954H28.4712ZM5.47119 48.25H1.25H5.47119Z" stroke="#00A0D2" stroke-width="2.5" stroke-linecap="round" stroke-linejoin="round"/>
</g>
</svg>
