<svg width="24" height="25" viewBox="0 0 24 25" fill="none" xmlns="http://www.w3.org/2000/svg">
<path fill-rule="evenodd" clip-rule="evenodd" d="M22 12.1064C22 17.6353 17.519 22.1109 12 22.1109C6.48218 22.1109 2 17.6351 2 12.1064C2 6.57661 6.48204 2.10199 12 2.10199C17.5191 2.10199 22 6.57647 22 12.1064ZM24 12.1064C24 18.733 18.6279 24.1064 12 24.1064C5.37341 24.1064 0 18.733 0 12.1064C0 5.47855 5.37341 0.106445 12 0.106445C18.6279 0.106445 24 5.47855 24 12.1064ZM12.3101 6.71757C12.3101 6.30428 11.9743 5.96924 11.5601 5.96924C11.1458 5.96924 10.8101 6.30428 10.8101 6.71757V13.0056C10.8101 13.4141 11.1384 13.7471 11.5478 13.7538L17.4245 13.8498C17.8387 13.8566 18.1799 13.5271 18.1867 13.1138C18.1935 12.7006 17.8633 12.3601 17.4491 12.3533L12.3101 12.2694V6.71757Z" fill="#00A0D2"/>
</svg>
