<svg width="22" height="22" viewBox="0 0 22 22" fill="none" xmlns="http://www.w3.org/2000/svg">
<path d="M13.7545 20.853H8.25449C7.04449 20.853 6.03615 20.7339 5.18365 20.4772C4.87199 20.3856 4.67032 20.083 4.68865 19.7622C4.91782 17.0214 7.69532 14.8672 11.0045 14.8672C14.3137 14.8672 17.082 17.0122 17.3203 19.7622C17.3478 20.0922 17.1462 20.3856 16.8253 20.4772C15.9728 20.7339 14.9645 20.853 13.7545 20.853ZM6.16449 19.3039C6.76949 19.423 7.45699 19.478 8.25449 19.478H13.7545C14.552 19.478 15.2395 19.423 15.8445 19.3039C15.3587 17.5439 13.3512 16.2422 11.0045 16.2422C8.65782 16.2422 6.65032 17.5439 6.16449 19.3039Z" fill="#00A0D2"/>
<path d="M13.7526 1.83203H8.2526C3.66927 1.83203 1.83594 3.66536 1.83594 8.2487V13.7487C1.83594 17.2137 2.88094 19.1112 5.37427 19.817C5.57594 17.4337 8.02344 15.5545 11.0026 15.5545C13.9818 15.5545 16.4293 17.4337 16.6309 19.817C19.1243 19.1112 20.1693 17.2137 20.1693 13.7487V8.2487C20.1693 3.66536 18.3359 1.83203 13.7526 1.83203ZM11.0026 12.9878C9.1876 12.9878 7.72094 11.512 7.72094 9.69705C7.72094 7.88205 9.1876 6.41536 11.0026 6.41536C12.8176 6.41536 14.2843 7.88205 14.2843 9.69705C14.2843 11.512 12.8176 12.9878 11.0026 12.9878Z" stroke="#00A0D2" stroke-width="1.5" stroke-linecap="round" stroke-linejoin="round"/>
<path d="M11.0004 13.678C8.80958 13.678 7.03125 11.8905 7.03125 9.69965C7.03125 7.50882 8.80958 5.73047 11.0004 5.73047C13.1913 5.73047 14.9696 7.50882 14.9696 9.69965C14.9696 11.8905 13.1913 13.678 11.0004 13.678ZM11.0004 7.10547C9.57042 7.10547 8.40625 8.26965 8.40625 9.69965C8.40625 11.1388 9.57042 12.303 11.0004 12.303C12.4304 12.303 13.5946 11.1388 13.5946 9.69965C13.5946 8.26965 12.4304 7.10547 11.0004 7.10547Z" fill="#00A0D2"/>
</svg>
