<svg width="16" height="16" viewBox="0 0 16 16" fill="none" xmlns="http://www.w3.org/2000/svg">
<path d="M13.3359 8.0026C13.3359 5.05709 10.9481 2.66927 8.0026 2.66927C5.05709 2.66927 2.66927 5.05709 2.66927 8.0026C2.66927 10.9481 5.05709 13.3359 8.0026 13.3359C10.9481 13.3359 13.3359 10.9481 13.3359 8.0026ZM7.33594 9.33594V8.66927C7.33594 8.30108 7.63441 8.0026 8.0026 8.0026C8.24848 8.0026 8.48957 7.93445 8.69922 7.80599C8.90872 7.67759 9.07843 7.49383 9.1901 7.27474C9.30176 7.05556 9.3507 6.80955 9.33138 6.56445C9.31204 6.31909 9.22578 6.08413 9.08138 5.88542C8.93672 5.68639 8.73947 5.53151 8.51237 5.4375C8.28522 5.3435 8.03651 5.31368 7.79362 5.35221C7.55071 5.3908 7.32285 5.49597 7.13607 5.6556C6.94914 5.81537 6.81027 6.02348 6.73438 6.25716C6.62072 6.60737 6.24474 6.7992 5.89453 6.68555C5.54433 6.57189 5.3525 6.19591 5.46615 5.8457C5.61801 5.37786 5.89641 4.96136 6.27018 4.64193C6.64413 4.32241 7.09974 4.11284 7.58529 4.03581C8.07092 3.95881 8.56839 4.01698 9.02279 4.20508C9.47727 4.39323 9.87045 4.70389 10.1595 5.10156C10.4488 5.4996 10.6222 5.96957 10.6608 6.45964C10.6995 6.94997 10.6014 7.44139 10.3783 7.87956C10.1551 8.31771 9.81526 8.68566 9.39583 8.94271C9.16931 9.08152 8.92409 9.18351 8.66927 9.24935V9.33594C8.66927 9.70413 8.37079 10.0026 8.0026 10.0026C7.63441 10.0026 7.33594 9.70413 7.33594 9.33594ZM8.70247 11.4023C8.70247 11.77 8.40479 12.0683 8.03711 12.069L7.9707 12.0697C7.79367 12.07 7.624 11.9994 7.4987 11.8743C7.37346 11.7493 7.3028 11.5799 7.30273 11.403V11.3359C7.30273 10.9677 7.60121 10.6693 7.9694 10.6693H8.03581C8.404 10.6693 8.70247 10.9677 8.70247 11.3359V11.4023ZM14.6693 8.0026C14.6693 11.6845 11.6845 14.6693 8.0026 14.6693C4.32071 14.6693 1.33594 11.6845 1.33594 8.0026C1.33594 4.32071 4.32071 1.33594 8.0026 1.33594C11.6845 1.33594 14.6693 4.32071 14.6693 8.0026Z" fill="#6E6E6E"/>
</svg>
