<svg width="20" height="20" viewBox="0 0 20 20" fill="none" xmlns="http://www.w3.org/2000/svg">
<path d="M16.668 10.0013C16.668 6.3194 13.6832 3.33464 10.0013 3.33464C6.3194 3.33464 3.33464 6.3194 3.33464 10.0013C3.33464 13.6832 6.3194 16.668 10.0013 16.668C13.6832 16.668 16.668 13.6832 16.668 10.0013ZM9.16797 11.668V10.8346C9.16797 10.3744 9.54107 10.0013 10.0013 10.0013C10.3087 10.0013 10.61 9.91611 10.8721 9.75553C11.134 9.59504 11.3461 9.36534 11.4857 9.09147C11.6252 8.8175 11.6864 8.50999 11.6623 8.20361C11.6381 7.89691 11.5303 7.60321 11.3498 7.35482C11.169 7.10603 10.9224 6.91243 10.6385 6.79492C10.3546 6.67742 10.0437 6.64014 9.74007 6.68831C9.43644 6.73655 9.15161 6.86801 8.91813 7.06755C8.68447 7.26725 8.51088 7.5274 8.41602 7.8195C8.27395 8.25726 7.80397 8.49705 7.36621 8.35498C6.92846 8.2129 6.68867 7.74293 6.83073 7.30518C7.02056 6.72037 7.36856 6.19974 7.83577 5.80046C8.30321 5.40105 8.87272 5.1391 9.47966 5.04281C10.0867 4.94655 10.7085 5.01927 11.2765 5.25439C11.8446 5.48959 12.3361 5.87791 12.6974 6.375C13.0591 6.87255 13.2758 7.46001 13.3241 8.07259C13.3724 8.68551 13.2499 9.29978 12.9709 9.84749C12.6919 10.3952 12.2671 10.8551 11.7428 11.1764C11.4597 11.3499 11.1532 11.4774 10.8346 11.5597V11.668C10.8346 12.1282 10.4615 12.5013 10.0013 12.5013C9.54107 12.5013 9.16797 12.1282 9.16797 11.668ZM10.8761 14.251C10.8761 14.7106 10.504 15.0834 10.0444 15.0843L9.96143 15.0851C9.74013 15.0856 9.52805 14.9973 9.37142 14.841C9.21487 14.6847 9.12655 14.473 9.12647 14.2518V14.168C9.12647 13.7077 9.49956 13.3346 9.9598 13.3346H10.0428C10.503 13.3346 10.8761 13.7077 10.8761 14.168V14.251ZM18.3346 10.0013C18.3346 14.6037 14.6037 18.3346 10.0013 18.3346C5.39893 18.3346 1.66797 14.6037 1.66797 10.0013C1.66797 5.39893 5.39893 1.66797 10.0013 1.66797C14.6037 1.66797 18.3346 5.39893 18.3346 10.0013Z" fill="#00A0D2"/>
</svg>
