<svg width="20" height="20" viewBox="0 0 20 20" fill="none" xmlns="http://www.w3.org/2000/svg">
<path d="M16.6641 10.0013C16.6641 6.3194 13.6793 3.33464 9.9974 3.33464C6.3155 3.33464 3.33073 6.3194 3.33073 10.0013C3.33073 13.6832 6.3155 16.668 9.9974 16.668C13.6793 16.668 16.6641 13.6832 16.6641 10.0013ZM9.16406 11.668V10.8346C9.16406 10.3744 9.53716 10.0013 9.9974 10.0013C10.3047 10.0013 10.6061 9.91611 10.8682 9.75553C11.13 9.59504 11.3422 9.36534 11.4818 9.09147C11.6213 8.8175 11.6825 8.50999 11.6584 8.20361C11.6342 7.89691 11.5264 7.60321 11.3459 7.35482C11.165 7.10603 10.9185 6.91243 10.6346 6.79492C10.3507 6.67742 10.0398 6.64014 9.73617 6.68831C9.43253 6.73655 9.14771 6.86801 8.91423 7.06755C8.68056 7.26725 8.50698 7.5274 8.41211 7.8195C8.27004 8.25726 7.80007 8.49705 7.36231 8.35498C6.92456 8.2129 6.68476 7.74293 6.82682 7.30518C7.01665 6.72037 7.36466 6.19974 7.83187 5.80046C8.29931 5.40105 8.86882 5.1391 9.47575 5.04281C10.0828 4.94655 10.7046 5.01927 11.2726 5.25439C11.8407 5.48959 12.3322 5.87791 12.6935 6.375C13.0552 6.87255 13.2719 7.46001 13.3202 8.07259C13.3685 8.68551 13.2459 9.29978 12.967 9.84749C12.688 10.3952 12.2632 10.8551 11.7389 11.1764C11.4558 11.3499 11.1493 11.4774 10.8307 11.5597V11.668C10.8307 12.1282 10.4576 12.5013 9.9974 12.5013C9.53716 12.5013 9.16406 12.1282 9.16406 11.668ZM10.8722 14.251C10.8722 14.7106 10.5001 15.0834 10.0405 15.0843L9.95752 15.0851C9.73623 15.0856 9.52415 14.9973 9.36751 14.841C9.21096 14.6847 9.12265 14.473 9.12256 14.2518V14.168C9.12256 13.7077 9.49566 13.3346 9.95589 13.3346H10.0389C10.4991 13.3346 10.8722 13.7077 10.8722 14.168V14.251ZM18.3307 10.0013C18.3307 14.6037 14.5998 18.3346 9.9974 18.3346C5.39502 18.3346 1.66406 14.6037 1.66406 10.0013C1.66406 5.39893 5.39502 1.66797 9.9974 1.66797C14.5998 1.66797 18.3307 5.39893 18.3307 10.0013Z" fill="#6E6E6E"/>
</svg>
