<svg xmlns="http://www.w3.org/2000/svg" width="20" height="20" viewBox="0 0 20 20" fill="none">
	<path d="M14.1667 17.5C14.1667 15.1988 12.3012 13.3333 10 13.3333C7.69881 13.3333 5.83333 15.1988 5.83333 17.5M14.1667 17.5H14.8359C15.7675 17.5 16.2333 17.5 16.5895 17.3185C16.9031 17.1587 17.1587 16.9031 17.3185 16.5895C17.5 16.2333 17.5 15.7675 17.5 14.8359V5.16409C17.5 4.23249 17.5 3.766 17.3185 3.40983C17.1587 3.09623 16.9031 2.84144 16.5895 2.68166C16.233 2.5 15.7669 2.5 14.8335 2.5H5.16683C4.23341 2.5 3.76635 2.5 3.40983 2.68166C3.09623 2.84144 2.84144 3.09623 2.68166 3.40983C2.5 3.76635 2.5 4.23341 2.5 5.16683V14.8335C2.5 15.7669 2.5 16.233 2.68166 16.5895C2.84144 16.9031 3.09623 17.1587 3.40983 17.3185C3.766 17.5 4.23249 17.5 5.16409 17.5H5.83333M14.1667 17.5H5.83333M10 10.8333C8.61929 10.8333 7.5 9.71405 7.5 8.33333C7.5 6.95262 8.61929 5.83333 10 5.83333C11.3807 5.83333 12.5 6.95262 12.5 8.33333C12.5 9.71405 11.3807 10.8333 10 10.8333Z" stroke="#00A0D2" stroke-width="2" stroke-linecap="round" stroke-linejoin="round"/>
</svg>