<svg width="28" height="28" viewBox="0 0 28 28" fill="none" xmlns="http://www.w3.org/2000/svg">
<path d="M23.3333 3.5C23.9777 3.5 24.5 4.02233 24.5 4.66667V23.3333C24.5 23.9777 23.9777 24.5 23.3333 24.5H4.66667C4.02233 24.5 3.5 23.9777 3.5 23.3333V4.66667C3.5 4.02233 4.02233 3.5 4.66667 3.5H23.3333ZM5.83333 22.1667H22.1667V5.83333H5.83333V22.1667ZM9.04167 20.125V18.9583H7.875C7.23067 18.9583 6.70833 18.436 6.70833 17.7917C6.70833 17.1473 7.23067 16.625 7.875 16.625H9.04167V15.4583C9.04167 14.814 9.564 14.2917 10.2083 14.2917C10.8527 14.2917 11.375 14.814 11.375 15.4583V16.625H12.5417C13.186 16.625 13.7083 17.1473 13.7083 17.7917C13.7083 18.436 13.186 18.9583 12.5417 18.9583H11.375V20.125C11.375 20.7693 10.8527 21.2917 10.2083 21.2917C9.564 21.2917 9.04167 20.7693 9.04167 20.125ZM20.125 18.0833C20.7693 18.0833 21.2917 18.6057 21.2917 19.25C21.2917 19.8943 20.7693 20.4167 20.125 20.4167H16.0417C15.3973 20.4167 14.875 19.8943 14.875 19.25C14.875 18.6057 15.3973 18.0833 16.0417 18.0833H20.125ZM20.125 15.1667C20.7693 15.1667 21.2917 15.689 21.2917 16.3333C21.2917 16.9777 20.7693 17.5 20.125 17.5H16.0417C15.3973 17.5 14.875 16.9777 14.875 16.3333C14.875 15.689 15.3973 15.1667 16.0417 15.1667H20.125ZM18.9253 7.3418C19.3809 6.8864 20.1195 6.88626 20.575 7.3418C21.0306 7.79734 21.0304 8.53591 20.575 8.99154L19.7502 9.81641L20.575 10.6413C21.0305 11.0968 21.0304 11.8354 20.575 12.291C20.1194 12.7466 19.3809 12.7466 18.9253 12.291L18.1004 11.4661L17.2756 12.2922C16.8199 12.7478 16.0803 12.7478 15.6247 12.2922C15.1691 11.8365 15.1691 11.0969 15.6247 10.6413L16.4495 9.81641L15.6247 8.99154C15.1694 8.536 15.1694 7.79734 15.6247 7.3418C16.0803 6.88619 16.8199 6.88619 17.2756 7.3418L18.0993 8.16553L18.9253 7.3418ZM12.25 8.75C12.8943 8.75 13.4167 9.27233 13.4167 9.91667C13.4167 10.561 12.8943 11.0833 12.25 11.0833H8.16667C7.52233 11.0833 7 10.561 7 9.91667C7 9.27233 7.52233 8.75 8.16667 8.75H12.25Z" fill="#036381"/>
</svg>
