<svg width="29" height="29" viewBox="0 0 29 29" fill="none" xmlns="http://www.w3.org/2000/svg">
<path d="M7.70312 5.1875V6.53125H5.35938V10.0469H4.1875V13.3906H5.35938V23.9375H22.7656V13.3906H23.9375V10.0469H22.7656V6.53125H20.4219V5.1875H24.1094V25.2812H4.01562V5.1875H7.70312ZM18.04 15.458L13.0664 20.3887L10.084 17.4326L10.7822 16.7412L12.7148 18.6562L13.0664 19.0059L13.4189 18.6562L17.3418 14.7666L18.04 15.458ZM22.9375 11.0469V12.3906H22.7656V11.0469H22.9375ZM21.7656 11.0469V12.3906H6.35938V11.0469H21.7656ZM5.35938 11.0469V12.3906H5.1875V11.0469H5.35938ZM19.4219 7.53125V8.875H18.0781V7.53125H19.4219ZM10.0469 7.53125V8.875H8.70312V7.53125H10.0469ZM19.4219 5.1875V6.53125H18.0781V5.1875H19.4219ZM17.0781 5.1875V6.53125H11.0469V5.1875H17.0781ZM10.0469 5.1875V6.53125H8.70312V5.1875H10.0469ZM19.4219 2.84375V4.1875H18.0781V2.84375H19.4219ZM10.0469 2.84375V4.1875H8.70312V2.84375H10.0469Z" fill="#047EA5" stroke="#047EA5"/>
</svg>
