<svg width="32" height="32" viewBox="0 0 32 32" fill="none" xmlns="http://www.w3.org/2000/svg">
<path d="M12.4509 21.3232C16.6594 21.0895 20 17.6029 20 13.3359C20 8.91766 16.4183 5.33594 12 5.33594C7.58172 5.33594 4 8.91766 4 13.3359C4 14.9102 4.45458 16.3782 5.23985 17.6159L4.67448 19.312L4.67358 19.3145C4.45703 19.9641 4.34871 20.2891 4.42585 20.5054C4.49306 20.6939 4.64225 20.8424 4.83073 20.9097C5.0463 20.9865 5.36899 20.879 6.01425 20.6639L6.02344 20.6611L7.72005 20.0957C8.95774 20.881 10.4258 21.3357 12.0001 21.3357C12.1514 21.3357 12.3016 21.3315 12.4509 21.3232ZM12.4509 21.3232C12.451 21.3235 12.4507 21.3229 12.4509 21.3232ZM12.4509 21.3232C13.5454 24.4371 16.5121 26.6695 20.0002 26.6695C21.5745 26.6695 23.0422 26.2144 24.2798 25.429L25.976 25.9944L25.9794 25.9951C26.6289 26.2116 26.9544 26.3201 27.1707 26.243C27.3592 26.1758 27.5065 26.0272 27.5737 25.8387C27.6509 25.6221 27.5429 25.2968 27.3258 24.6454L26.7604 22.9492L26.9498 22.6354C27.6184 21.4665 27.9993 20.1123 27.9993 18.6693C27.9993 14.251 24.4183 10.6693 20 10.6693L19.7005 10.6748L19.5495 10.6822" stroke="white" stroke-width="2" stroke-linecap="round" stroke-linejoin="round"/>
</svg>
