<svg width="28" height="28" viewBox="0 0 28 28" fill="none" xmlns="http://www.w3.org/2000/svg">
<path d="M22.1667 19.8359C22.1667 19.5265 22.0437 19.2299 21.8249 19.0111C21.6061 18.7923 21.3094 18.6693 21 18.6693C20.6906 18.6693 20.3939 18.7923 20.1751 19.0111C19.9563 19.2299 19.8333 19.5265 19.8333 19.8359L19.839 19.951C19.8655 20.2182 19.9836 20.4693 20.1751 20.6608C20.3939 20.8796 20.6906 21.0026 21 21.0026C21.3094 21.0026 21.6061 20.8796 21.8249 20.6608C22.0437 20.442 22.1667 20.1454 22.1667 19.8359ZM24.5 19.8359C24.5 20.7642 24.131 21.6542 23.4746 22.3105C22.8182 22.9669 21.9283 23.3359 21 23.3359C20.0717 23.3359 19.1818 22.9669 18.5254 22.3105C17.9512 21.7363 17.5967 20.9834 17.5171 20.1823L17.5 19.8359C17.5 18.9077 17.869 18.0177 18.5254 17.3613C19.1818 16.705 20.0717 16.3359 21 16.3359C21.9283 16.3359 22.8182 16.705 23.4746 17.3613C24.131 18.0177 24.5 18.9077 24.5 19.8359Z" fill="#036381"/>
<path d="M7.0026 19.8307C7.0026 20.1401 7.12561 20.4368 7.3444 20.6556C7.56319 20.8744 7.85985 20.9974 8.16927 20.9974C8.47869 20.9974 8.77535 20.8744 8.99414 20.6556C9.21293 20.4368 9.33594 20.1401 9.33594 19.8307H7.0026ZM11.6693 19.8307C11.6693 20.759 11.3003 21.649 10.6439 22.3053C9.9875 22.9617 9.09753 23.3307 8.16927 23.3307C7.24101 23.3307 6.35104 22.9617 5.69466 22.3053C5.03828 21.649 4.66927 20.759 4.66927 19.8307H3.5026C2.85827 19.8307 2.33594 19.3084 2.33594 18.6641V17.4974C2.33594 16.2597 2.82796 15.0731 3.70312 14.1979C4.57829 13.3227 5.76493 12.8307 7.0026 12.8307H10.5026C11.1469 12.8307 11.6693 13.3531 11.6693 13.9974V17.4974H14.3854C14.915 16.3636 15.6993 15.3626 16.6823 14.5762C17.6114 13.8329 18.6886 13.3052 19.8359 13.0233V8.16406C19.8359 7.85464 19.7129 7.55799 19.4941 7.33919C19.3026 7.14769 19.0515 7.02956 18.7843 7.00309L18.6693 6.9974H16.3359V4.66406H18.6693C19.5975 4.66406 20.4875 5.03308 21.1439 5.68945C21.8003 6.34583 22.1693 7.2358 22.1693 8.16406V13.9974C22.1693 14.5913 21.7227 15.0909 21.1325 15.1572C20.0378 15.2803 19.0008 15.711 18.1406 16.3991C17.2804 17.0873 16.6325 18.0047 16.2721 19.0457C16.1095 19.5156 15.6665 19.8307 15.1693 19.8307H11.6693ZM9.33594 17.4974V15.1641H7.0026C6.38377 15.1641 5.79045 15.4101 5.35286 15.8477C4.91528 16.2852 4.66927 16.8786 4.66927 17.4974H9.33594Z" fill="#036381"/>
<path d="M10.5 9.33594V11.6693H7V9.33594H10.5Z" fill="#036381"/>
</svg>
