<svg width="20" height="20" viewBox="0 0 20 20" fill="none" xmlns="http://www.w3.org/2000/svg">
<path d="M1.14453 16.0252V6.33083C1.14479 4.67419 2.48784 3.33083 4.14453 3.33083H8.99121C9.54334 3.33083 9.99095 3.77876 9.99121 4.33083C9.99121 4.88311 9.5435 5.33083 8.99121 5.33083H4.14453C3.5924 5.33083 3.14479 5.77876 3.14453 6.33083V16.0252C3.14453 16.5774 3.59225 17.0252 4.14453 17.0252H13.291C13.8432 17.0251 14.291 16.5774 14.291 16.0252V10.6306H16.291V16.0252C16.291 17.682 14.9478 19.0251 13.291 19.0252H4.14453C2.48768 19.0252 1.14453 17.682 1.14453 16.0252ZM14.1211 2.1404C14.9022 1.3595 16.1682 1.3594 16.9492 2.1404L17.8584 3.04958C18.6394 3.83063 18.6394 5.09763 17.8584 5.87868L9.87109 13.866C9.59196 14.145 9.23662 14.3354 8.84961 14.4129L7.71191 14.6404C6.31267 14.9199 5.07955 13.6862 5.35938 12.2869L5.58594 11.1492C5.66341 10.7621 5.85465 10.4068 6.13379 10.1277L14.1211 2.1404ZM7.54785 11.5418L7.32031 12.6795L8.45703 12.4519L16.4443 4.46462L15.5352 3.55446L7.54785 11.5418Z" fill="white"/>
</svg>
