<svg width="24" height="24" viewBox="0 0 24 24" fill="none" xmlns="http://www.w3.org/2000/svg">
<path d="M18 8.75C17.59 8.75 17.25 8.41 17.25 8V6C17.25 2.85 16.36 2.75 12 2.75C7.64 2.75 6.75 2.85 6.75 6V8C6.75 8.41 6.41 8.75 6 8.75C5.59 8.75 5.25 8.41 5.25 8V6C5.25 3.1 5.95 1.25 12 1.25C18.05 1.25 18.75 3.1 18.75 6V8C18.75 8.41 18.41 8.75 18 8.75Z" fill="#33B3DB"/>
<path d="M17.1163 23H6.88372C2.37116 23 1 21.5111 1 16.6111V14.3889C1 9.48889 2.37116 8 6.88372 8H17.1163C21.6288 8 23 9.48889 23 14.3889V16.6111C23 21.5111 21.6288 23 17.1163 23ZM6.88372 9.66667C3.22047 9.66667 2.53488 10.4222 2.53488 14.3889V16.6111C2.53488 20.5778 3.22047 21.3333 6.88372 21.3333H17.1163C20.7795 21.3333 21.4651 20.5778 21.4651 16.6111V14.3889C21.4651 10.4222 20.7795 9.66667 17.1163 9.66667H6.88372Z" fill="#33B3DB"/>
<path d="M12 17.25C10.48 17.25 9.25 16.02 9.25 14.5C9.25 12.98 10.48 11.75 12 11.75C13.52 11.75 14.75 12.98 14.75 14.5C14.75 16.02 13.52 17.25 12 17.25ZM12 13.25C11.31 13.25 10.75 13.81 10.75 14.5C10.75 15.19 11.31 15.75 12 15.75C12.69 15.75 13.25 15.19 13.25 14.5C13.25 13.81 12.69 13.25 12 13.25Z" fill="#33B3DB"/>
<path d="M11.9995 20.25C11.5898 20.25 11.25 19.91 11.25 19.5V16.5C11.25 16.09 11.5898 15.75 11.9995 15.75C12.4093 15.75 12.7491 16.09 12.7491 16.5V19.5C12.7491 19.91 12.4093 20.25 11.9995 20.25Z" fill="#33B3DB"/>
</svg>
