<svg width="160" height="200" viewBox="0 0 160 200" fill="none" xmlns="http://www.w3.org/2000/svg">
<rect width="160" height="200" rx="4" fill="#E0E0E0"/>
<path d="M84.5334 92.591C84.5334 90.4791 86.0552 88.7671 87.9324 88.7671C89.8097 88.7671 91.3315 90.4791 91.3315 92.591C91.3315 94.7029 89.8097 96.4149 87.9324 96.4149C86.0552 96.4149 84.5334 94.7029 84.5334 92.591Z" fill="white"/>
<path fill-rule="evenodd" clip-rule="evenodd" d="M69.2773 81.5234C76.4132 80.8255 83.5894 80.8255 90.7253 81.5234L94.1475 81.8581C97.4221 82.1783 100.075 84.9816 100.564 88.6383C101.592 96.3288 101.592 104.149 100.564 111.839C100.075 115.496 97.4221 118.299 94.1475 118.62L90.7253 118.954C83.5894 119.652 76.4132 119.652 69.2773 118.954L65.8551 118.62C62.5805 118.299 59.9277 115.496 59.4389 111.839C58.411 104.149 58.411 96.3288 59.4389 88.6383C59.9277 84.9816 62.5805 82.1783 65.8551 81.8581L69.2773 81.5234ZM90.4309 85.333C83.4909 84.6543 76.5117 84.6543 69.5717 85.333L66.1494 85.6676C64.4401 85.8348 63.0554 87.2981 62.8002 89.2069C62.2166 93.5729 61.9814 97.9828 62.0946 102.384L70.8684 92.5137C71.1994 92.1413 71.6522 91.939 72.1201 91.9545C72.5879 91.97 73.0294 92.2018 73.3404 92.5954L81.66 103.125L87.395 100.974C88.0363 100.734 88.7434 100.944 89.1957 101.509L97.1701 111.477C97.1823 111.409 97.1931 111.34 97.2024 111.271C98.18 103.957 98.18 96.5204 97.2024 89.2069C96.9472 87.2981 95.5625 85.8348 93.8531 85.6676L90.4309 85.333ZM95.0028 114.484L87.4138 104.998L81.6717 107.151C81.0268 107.393 80.3157 107.179 79.864 106.608L71.9974 96.6514L62.381 107.47C62.4916 108.74 62.6313 110.007 62.8002 111.271C63.0554 113.18 64.4401 114.643 66.1495 114.81L69.5717 115.145C76.5117 115.823 83.4909 115.823 90.4309 115.145L93.8532 114.81C94.2582 114.77 94.645 114.658 95.0028 114.484Z" fill="white"/>
</svg>
