<svg width="74" height="74" viewBox="0 0 74 74" fill="none" xmlns="http://www.w3.org/2000/svg">
<circle cx="36.75" cy="36.75" r="36" fill="white" stroke="#E0E0E0" stroke-width="1.5"/>
<path fill-rule="evenodd" clip-rule="evenodd" d="M36.9407 55.4873C30.0408 55.4873 24.1484 54.4135 24.1484 50.1134C24.1484 45.8133 30.0034 41.8438 36.9407 41.8438C43.8406 41.8438 49.733 45.7749 49.733 50.075C49.733 54.3733 43.878 55.4873 36.9407 55.4873Z" stroke="#00A0D2" stroke-width="3" stroke-linecap="round" stroke-linejoin="round"/>
<path fill-rule="evenodd" clip-rule="evenodd" d="M36.9263 35.7493C41.4543 35.7493 45.1243 32.0793 45.1243 27.5513C45.1243 23.0232 41.4543 19.3516 36.9263 19.3516C32.3983 19.3516 28.7266 23.0232 28.7266 27.5513C28.7113 32.064 32.3558 35.734 36.8685 35.7493C36.8889 35.7493 36.9076 35.7493 36.9263 35.7493Z" stroke="#00A0D2" stroke-width="3" stroke-linecap="round" stroke-linejoin="round"/>
</svg>
