<svg width="250" height="201" viewBox="0 0 250 201" fill="none" xmlns="http://www.w3.org/2000/svg">
<path d="M136 64.1445C139.866 64.1445 143 67.2855 143 71.1602C143 75.0348 139.866 78.1758 136 78.1758H200C203.866 78.1758 207 81.3168 207 85.1914C207 89.066 203.866 92.207 200 92.207H222C225.866 92.207 229 95.348 229 99.2227C229 103.097 225.866 106.238 222 106.238H203C199.134 106.238 196 109.379 196 113.254C196 117.129 199.134 120.27 203 120.27H209C212.866 120.27 216 123.411 216 127.285C216 131.16 212.866 134.301 209 134.301H157C156.485 134.301 155.983 134.245 155.5 134.14C155.017 134.245 154.515 134.301 154 134.301H63C59.134 134.301 56 131.16 56 127.285C56 123.411 59.134 120.27 63 120.27H24C20.134 120.27 17 117.129 17 113.254C17 109.379 20.134 106.238 24 106.238H64C67.866 106.238 71 103.097 71 99.2227C71 95.348 67.866 92.207 64 92.207H39C35.134 92.207 32 89.066 32 85.1914C32 81.3168 35.134 78.1758 39 78.1758H79C75.134 78.1758 72 75.0348 72 71.1602C72 67.2855 75.134 64.1445 79 64.1445H136ZM226 120.27C229.866 120.27 233 123.411 233 127.285C233 131.16 229.866 134.301 226 134.301C222.134 134.301 219 131.16 219 127.285C219 123.411 222.134 120.27 226 120.27Z" fill="#F3F7FF"/>
<path fill-rule="evenodd" clip-rule="evenodd" d="M168.577 126.356C166 128.286 163.488 130.099 160.644 131.667L160.809 145.782C160.822 146.889 159.937 147.797 158.832 147.81C158.383 147.815 157.945 147.668 157.589 147.394L144.926 137.63C140.18 138.725 135.173 139.31 130 139.31C99.6243 139.31 75 119.118 75 94.2098C75 69.3015 99.6243 49.1094 130 49.1094C160.376 49.1094 185 69.3015 185 94.2098C185 101.104 183.114 107.637 179.741 113.48C179.119 114.558 178.446 115.612 177.726 116.641C177.726 116.641 176.317 118.765 173.5 121.771C170.683 124.778 168.577 126.356 168.577 126.356Z" fill="white" stroke="#00A0D2" stroke-width="2.5" stroke-linecap="round"/>
<path fill-rule="evenodd" clip-rule="evenodd" d="M162.853 81.7722C168.157 81.7722 173.266 81.1383 178.051 79.9655C179.961 84.3248 181 89.0221 181 93.9171C181 100.267 179.251 106.284 176.123 111.666C175.547 112.659 174.923 113.63 174.255 114.578C173.2 116.074 172.448 117.13 171.785 117.977C170.219 119.981 169.155 120.814 165.771 123.526C163.515 125.335 161.052 126.974 158.415 128.418L158.568 141.418C158.58 142.438 158.889 144.31 157.865 144.322C157.449 144.327 155.913 143.156 155.583 142.903L145.373 133.765C140.972 134.774 134.797 135.458 130 135.458C101.833 135.458 79 116.859 79 93.9171C79 75.1289 94.3133 59.254 115.328 54.1211C120.832 70.031 140.023 81.7722 162.853 81.7722ZM110.291 88.3456C106.986 88.3456 104.307 91.0481 104.307 94.3819C104.307 97.7156 106.986 100.418 110.291 100.418C113.596 100.418 116.275 97.7156 116.275 94.3819C116.275 91.0481 113.596 88.3456 110.291 88.3456ZM129.241 88.3456C125.936 88.3456 123.257 91.0481 123.257 94.3819C123.257 97.7156 125.936 100.418 129.241 100.418C132.546 100.418 135.225 97.7156 135.225 94.3819C135.225 91.0481 132.546 88.3456 129.241 88.3456ZM148.191 88.3456C144.886 88.3456 142.207 91.0481 142.207 94.3819C142.207 97.7156 144.886 100.418 148.191 100.418C151.496 100.418 154.176 97.7156 154.176 94.3819C154.176 91.0481 151.496 88.3456 148.191 88.3456Z" fill="#F0F2F4"/>
<path fill-rule="evenodd" clip-rule="evenodd" d="M110 88.1953C113.314 88.1953 116 90.8876 116 94.2087C116 97.5298 113.314 100.222 110 100.222C106.686 100.222 104 97.5298 104 94.2087C104 90.8876 106.686 88.1953 110 88.1953ZM129 88.1953C132.314 88.1953 135 90.8876 135 94.2087C135 97.5298 132.314 100.222 129 100.222C125.686 100.222 123 97.5298 123 94.2087C123 90.8876 125.686 88.1953 129 88.1953ZM148 88.1953C151.314 88.1953 154 90.8876 154 94.2087C154 97.5298 151.314 100.222 148 100.222C144.686 100.222 142 97.5298 142 94.2087C142 90.8876 144.686 88.1953 148 88.1953Z" fill="white" stroke="#00A0D2" stroke-width="2.5"/>
<path d="M89.6628 79.4883C88.7548 81.0236 87.968 82.617 87.3125 84.2599" stroke="#00A0D2" stroke-width="2.5" stroke-linecap="round"/>
<path d="M108.02 63.2148C101.468 66.3491 95.9353 70.7829 91.9375 76.0906" stroke="#00A0D2" stroke-width="2.5" stroke-linecap="round"/>
</svg>
