<svg width="24" height="25" viewBox="0 0 24 25" fill="none" xmlns="http://www.w3.org/2000/svg">
<path d="M16.44 3.10547C14.63 3.10547 13.01 3.98714 12 5.3397C10.99 3.98714 9.37 3.10547 7.56 3.10547C4.49 3.10547 2 5.61021 2 8.70607C2 9.89832 2.19 11.0004 2.52 12.0223C4.1 17.0318 8.97 20.0275 11.38 20.849C11.72 20.9693 12.28 20.9693 12.62 20.849C15.03 20.0275 19.9 17.0318 21.48 12.0223C21.81 11.0004 22 9.89832 22 8.70607C22 5.61021 19.51 3.10547 16.44 3.10547Z" fill="#FF2E53"/>
<path d="M7.81152 9.83887C8.22334 9.44097 8.90006 9.50045 9.23633 9.96387L9.30371 10.0693L11.4717 14.0449L12.7744 11.4404L12.8428 11.3252C13.0185 11.0707 13.3101 10.915 13.625 10.915H17.501C17.9151 10.9152 18.251 11.2509 18.251 11.665C18.2507 12.0789 17.9149 12.4149 17.501 12.415H13.9639L12.3428 15.6582C11.9995 16.3438 11.0268 16.3612 10.6592 15.6885L8.38184 11.5137L7.14648 13.0586C6.96634 13.2836 6.69348 13.4148 6.40527 13.415H3.06641C2.86563 12.9861 2.68808 12.5399 2.53906 12.0762C2.66656 11.976 2.82625 11.915 3.00098 11.915H6.14062L7.72754 9.93164L7.81152 9.83887Z" fill="white"/>
</svg>
