<svg width="24" height="26" viewBox="0 0 24 26" fill="none" xmlns="http://www.w3.org/2000/svg">
<path d="M6 16.9727C6.00065 15.9857 6.25673 15.015 6.74348 14.1544C7.23024 13.2939 7.93121 12.572 8.7797 12.0577V3.78864C8.7797 2.98298 9.10218 2.2103 9.67599 1.64061C10.2498 1.07092 11.0281 0.75 11.8395 0.75C12.651 0.75 13.4293 1.07092 14.0031 1.64061C14.5769 2.2103 14.8994 2.98298 14.8994 3.78864V12.0577C15.7604 12.5894 16.4665 13.335 16.9481 14.2209C17.4298 15.1067 17.6704 16.1022 17.6456 17.1086C17.6209 18.1149 17.3317 19.097 16.8071 19.9585C16.2825 20.82 15.5407 21.5312 14.6546 22.0205C13.7685 22.5099 12.769 22.7614 11.7552 22.7496C10.7413 22.7378 9.74822 22.4625 8.87397 21.9526C7.99972 21.4427 7.2745 20.7158 6.77047 19.8423C6.26644 18.9688 6.00087 17.9794 6 16.9727Z" fill="white" stroke="#FF5C00" stroke-width="1.5"/>
<path d="M11.8376 20.9826C13.9872 20.9826 15.7298 19.2525 15.7298 17.1183C15.7298 14.984 13.9872 13.2539 11.8376 13.2539C9.68794 13.2539 7.94531 14.984 7.94531 17.1183C7.94531 19.2525 9.68794 20.9826 11.8376 20.9826Z" fill="#FF5C00"/>
<path d="M12.6194 4.10099C12.6194 3.67415 12.2709 3.32812 11.841 3.32812C11.411 3.32812 11.0625 3.67415 11.0625 4.10099V11.0568C11.0625 11.4837 11.411 11.8297 11.841 11.8297C12.2709 11.8297 12.6194 11.4837 12.6194 11.0568V4.10099Z" fill="#FF5C00"/>
<path d="M19.5455 6.25C19.7965 6.25 20 5.91421 20 5.5C20 5.08579 19.7965 4.75 19.5455 4.75L15.4545 4.75C15.2035 4.75 15 5.08579 15 5.5C15 5.91421 15.2035 6.25 15.4545 6.25L19.5455 6.25Z" fill="#FF5C00"/>
<path d="M19.5455 9.25C19.7965 9.25 20 8.91421 20 8.5C20 8.08579 19.7965 7.75 19.5455 7.75L15.4545 7.75C15.2035 7.75 15 8.08579 15 8.5C15 8.91421 15.2035 9.25 15.4545 9.25L19.5455 9.25Z" fill="#FF5C00"/>
</svg>
