<svg width="24" height="25" viewBox="0 0 24 25" fill="none" xmlns="http://www.w3.org/2000/svg">
<path d="M16 2.00391H8C5 2.00391 3 4.0077 3 7.01338V17.0323C3 20.038 5 22.0418 8 22.0418H16C19 22.0418 21 20.038 21 17.0323V7.01338C21 4.0077 19 2.00391 16 2.00391ZM17.57 8.49619L15.39 12.0028C15.33 12.093 15.23 12.1631 15.13 12.1731C15.11 12.1731 15.09 12.1731 15.08 12.1731C14.99 12.1731 14.9 12.1431 14.83 12.083C13.22 10.6503 10.8 10.6503 9.19 12.083C9.11 12.1531 9 12.1932 8.89 12.1731C8.78 12.1531 8.68 12.093 8.63 12.0028L6.45 8.49619C6.33 8.34591 6.36 8.14553 6.5 8.01528C9.63 5.21999 14.36 5.21999 17.5 8.01528C17.64 8.14553 17.67 8.34591 17.57 8.49619Z" fill="#3076DF"/>
</svg>
