<svg width="24" height="24" viewBox="0 0 24 24" fill="none" xmlns="http://www.w3.org/2000/svg">
<path d="M13.3 8.4C13.2069 8.27581 13.0861 8.175 12.9472 8.10557C12.8084 8.03615 12.6552 8 12.5 8C12.3448 8 12.1916 8.03615 12.0528 8.10557C11.9139 8.175 11.7931 8.27581 11.7 8.4L7.2 14.4C7.08857 14.5486 7.02072 14.7252 7.00404 14.9102C6.98736 15.0952 7.02252 15.2811 7.10557 15.4472C7.18863 15.6133 7.31629 15.753 7.47427 15.8507C7.63225 15.9483 7.81429 16 8 16L17 16C17.1857 16 17.3678 15.9483 17.5257 15.8507C17.6837 15.753 17.8114 15.6133 17.8944 15.4472C17.9775 15.2811 18.0126 15.0952 17.996 14.9102C17.9793 14.7252 17.9114 14.5486 17.8 14.4L13.3 8.4Z" fill="#ACACAC"/>
</svg>
