<svg width="24" height="24" viewBox="0 0 24 24" fill="none" xmlns="http://www.w3.org/2000/svg">
<path d="M13.3 15.6C13.2069 15.7242 13.0861 15.825 12.9472 15.8944C12.8084 15.9639 12.6552 16 12.5 16C12.3448 16 12.1916 15.9639 12.0528 15.8944C11.9139 15.825 11.7931 15.7242 11.7 15.6L7.2 9.6C7.08857 9.45143 7.02072 9.27477 7.00404 9.08981C6.98736 8.90484 7.02252 8.71889 7.10557 8.55279C7.18863 8.38668 7.31629 8.24698 7.47427 8.14935C7.63225 8.05172 7.81429 8 8 8L17 8C17.1857 8 17.3678 8.05172 17.5257 8.14935C17.6837 8.24698 17.8114 8.38668 17.8944 8.55279C17.9775 8.71889 18.0126 8.90485 17.996 9.08981C17.9793 9.27477 17.9114 9.45143 17.8 9.6L13.3 15.6Z" fill="#ACACAC"/>
</svg>
