<svg width="19" height="23" viewBox="0 0 19 23" fill="none" xmlns="http://www.w3.org/2000/svg">
<path d="M9.33333 0C11.686 0 13.8666 0.338201 15.5005 0.921712C16.3122 1.21161 17.0516 1.58463 17.6105 2.05648C18.1641 2.52388 18.6667 3.20403 18.6667 4.08333V18.0833C18.6667 18.9626 18.1641 19.6428 17.6105 20.1102C17.0516 20.582 16.3122 20.9551 15.5005 21.245C13.8666 21.8285 11.686 22.1667 9.33333 22.1667C6.9807 22.1667 4.80007 21.8285 3.16618 21.245C2.35445 20.9551 1.61507 20.582 1.05615 20.1102C0.502608 19.6428 0 18.9626 0 18.0833V4.08333C0 3.20403 0.502608 2.52388 1.05615 2.05648C1.61507 1.58463 2.35445 1.21161 3.16618 0.921712C4.80007 0.338201 6.9807 0 9.33333 0ZM16.3333 16.2354C16.0679 16.36 15.7891 16.4752 15.5005 16.5783C13.8666 17.1618 11.686 17.5 9.33333 17.5C6.9807 17.5 4.80007 17.1618 3.16618 16.5783C2.87761 16.4752 2.59878 16.36 2.33333 16.2354V18.0628C2.34089 18.0852 2.38136 18.1753 2.5612 18.3271C2.82875 18.5531 3.28517 18.8093 3.95117 19.0472C5.27301 19.5193 7.1758 19.8333 9.33333 19.8333C11.4909 19.8333 13.3937 19.5193 14.7155 19.0472C15.3815 18.8093 15.8379 18.5531 16.1055 18.3271C16.2853 18.1753 16.3258 18.0852 16.3333 18.0628V16.2354ZM16.3333 11.5687C16.0679 11.6934 15.7891 11.8086 15.5005 11.9116C13.8666 12.4951 11.686 12.8333 9.33333 12.8333C6.9807 12.8333 4.80007 12.4951 3.16618 11.9116C2.87761 11.8086 2.59878 11.6934 2.33333 11.5687V13.3962C2.34089 13.4186 2.38136 13.5086 2.5612 13.6605C2.82875 13.8864 3.28517 14.1427 3.95117 14.3805C5.27301 14.8526 7.1758 15.1667 9.33333 15.1667C11.4909 15.1667 13.3937 14.8526 14.7155 14.3805C15.3815 14.1427 15.8379 13.8864 16.1055 13.6605C16.2853 13.5086 16.3258 13.4186 16.3333 13.3962V11.5687ZM16.3333 6.90202C16.0679 7.02669 15.7891 7.14189 15.5005 7.24495C13.8666 7.82847 11.686 8.16667 9.33333 8.16667C6.9807 8.16667 4.80007 7.82847 3.16618 7.24495C2.87761 7.14189 2.59878 7.02669 2.33333 6.90202V8.72949C2.34089 8.75189 2.38136 8.84196 2.5612 8.99381C2.82875 9.21973 3.28517 9.47601 3.95117 9.71387C5.27301 10.1859 7.1758 10.5 9.33333 10.5C11.4909 10.5 13.3937 10.1859 14.7155 9.71387C15.3815 9.47601 15.8379 9.21973 16.1055 8.99381C16.2853 8.84196 16.3258 8.75189 16.3333 8.72949V6.90202ZM9.33333 2.33333C7.1758 2.33333 5.27301 2.64741 3.95117 3.11947C3.28517 3.35732 2.82875 3.6136 2.5612 3.83952C2.41586 3.96223 2.36111 4.04451 2.34131 4.08333C2.36111 4.12215 2.41586 4.20443 2.5612 4.32715C2.82875 4.55307 3.28517 4.80934 3.95117 5.0472C5.27301 5.51925 7.1758 5.83333 9.33333 5.83333C11.4909 5.83333 13.3937 5.51925 14.7155 5.0472C15.3815 4.80934 15.8379 4.55307 16.1055 4.32715C16.2502 4.20492 16.3042 4.12234 16.3242 4.08333C16.3042 4.04432 16.2502 3.96175 16.1055 3.83952C15.8379 3.6136 15.3815 3.35732 14.7155 3.11947C13.3937 2.64741 11.4909 2.33333 9.33333 2.33333Z" fill="#036381"/>
</svg>
