<svg width="20" height="20" viewBox="0 0 20 20" fill="none" xmlns="http://www.w3.org/2000/svg">
<path d="M9.9974 1.66406C12.6156 1.66406 14.9521 2.87266 16.4785 4.75895C16.7679 5.11672 16.7126 5.64135 16.3548 5.93083C15.997 6.22024 15.4724 6.16487 15.1829 5.80713C13.9594 4.29509 12.0913 3.33073 9.9974 3.33073C6.3155 3.33073 3.33073 6.3155 3.33073 9.9974C3.33073 10.4576 2.95763 10.8307 2.4974 10.8307C2.03716 10.8307 1.66406 10.4576 1.66406 9.9974C1.66406 5.39502 5.39502 1.66406 9.9974 1.66406Z" fill="#ACACAC"/>
<path d="M12.9141 4.9974H15.4141V2.4974C15.4141 2.03716 15.7872 1.66406 16.2474 1.66406C16.7076 1.66406 17.0807 2.03716 17.0807 2.4974V5.83073C17.0807 6.29097 16.7076 6.66406 16.2474 6.66406H12.9141C12.4538 6.66406 12.0807 6.29097 12.0807 5.83073C12.0807 5.37049 12.4538 4.9974 12.9141 4.9974Z" fill="#ACACAC"/>
<path d="M9.9974 18.3307C7.37921 18.3307 5.04266 17.1221 3.51628 15.2358C3.22687 14.8781 3.28224 14.3534 3.63998 14.064C3.99775 13.7746 4.52237 13.8299 4.81185 14.1877C6.03539 15.6997 7.90348 16.6641 9.9974 16.6641C13.6793 16.6641 16.6641 13.6793 16.6641 9.9974C16.6641 9.53716 17.0372 9.16406 17.4974 9.16406C17.9576 9.16406 18.3307 9.53716 18.3307 9.9974C18.3307 14.5998 14.5998 18.3307 9.9974 18.3307Z" fill="#ACACAC"/>
<path d="M7.08073 14.9974H4.58073L4.58073 17.4974C4.58073 17.9576 4.20763 18.3307 3.7474 18.3307C3.28716 18.3307 2.91406 17.9576 2.91406 17.4974L2.91406 14.1641C2.91406 13.7038 3.28716 13.3307 3.7474 13.3307L7.08073 13.3307C7.54097 13.3307 7.91406 13.7038 7.91406 14.1641C7.91406 14.6243 7.54097 14.9974 7.08073 14.9974Z" fill="#ACACAC"/>
</svg>
