<svg width="24" height="24" viewBox="0 0 24 24" fill="none" xmlns="http://www.w3.org/2000/svg">
<path d="M12.001 16.7188C15.3223 16.7189 17.9892 18.7953 18.3633 21.3525L18.3926 21.6016C18.4022 21.7231 18.3328 21.8241 18.2129 21.8584L18.2061 21.8604C17.338 22.1216 16.2904 22.249 15.001 22.249H9.00098C7.71126 22.249 6.66311 22.1217 5.79492 21.8604L5.79199 21.8594L5.71777 21.8213C5.65216 21.7724 5.60716 21.69 5.60938 21.5967C5.83393 18.9399 8.57287 16.7188 12.001 16.7188ZM12.001 17.2188C9.28969 17.2188 6.84568 18.7254 6.23828 20.9258L6.0957 21.4453L6.62402 21.5498C7.32488 21.6878 8.10934 21.749 9.00098 21.749H15.001C15.8924 21.749 16.6763 21.6878 17.377 21.5498L17.9062 21.4453L17.7627 20.9258C17.1553 18.7255 14.7121 17.2189 12.001 17.2188Z" stroke="#33B3DB"/>
<path d="M15 2H9C4 2 2 4 2 9V15C2 18.78 3.14 20.85 5.86 21.62C6.08 19.02 8.75 16.97 12 16.97C15.25 16.97 17.92 19.02 18.14 21.62C20.86 20.85 22 18.78 22 15V9C22 4 20 2 15 2ZM12 14.17C10.02 14.17 8.42 12.56 8.42 10.58C8.42 8.60002 10.02 7 12 7C13.98 7 15.58 8.60002 15.58 10.58C15.58 12.56 13.98 14.17 12 14.17Z" stroke="#33B3DB" stroke-width="1.5" stroke-linecap="round" stroke-linejoin="round"/>
<path d="M12.002 6.75C14.1158 6.75004 15.832 8.46624 15.832 10.5801C15.832 12.6954 14.1143 14.4199 12.002 14.4199C9.88961 14.4199 8.17191 12.6954 8.17188 10.5801C8.17188 8.46622 9.8881 6.75 12.002 6.75ZM12.002 7.25C10.1658 7.25 8.67188 8.74394 8.67188 10.5801C8.67191 12.4251 10.1647 13.9199 12.002 13.9199C13.8392 13.9199 15.332 12.425 15.332 10.5801C15.332 8.74396 13.8381 7.25004 12.002 7.25Z" stroke="#33B3DB"/>
</svg>
