<svg width="18" height="15" viewBox="0 0 18 15" fill="none" xmlns="http://www.w3.org/2000/svg">
<path d="M16.7917 12.4167C16.7917 12.8034 16.638 13.1744 16.3645 13.4479C16.091 13.7214 15.7201 13.875 15.3333 13.875H2.20833C1.82156 13.875 1.45063 13.7214 1.17714 13.4479C0.903645 13.1744 0.75 12.8034 0.75 12.4167V4.39583C0.75 4.00906 0.903645 3.63813 1.17714 3.36464C1.45063 3.09115 1.82156 2.9375 2.20833 2.9375H5.125L6.58333 0.75H10.9583L12.4167 2.9375H15.3333C15.7201 2.9375 16.091 3.09115 16.3645 3.36464C16.638 3.63813 16.7917 4.00906 16.7917 4.39583V12.4167Z" stroke="white" stroke-width="1.5" stroke-linecap="round" stroke-linejoin="round"/>
<path d="M8.77214 10.9583C10.383 10.9583 11.6888 9.6525 11.6888 8.04167C11.6888 6.43084 10.383 5.125 8.77214 5.125C7.1613 5.125 5.85547 6.43084 5.85547 8.04167C5.85547 9.6525 7.1613 10.9583 8.77214 10.9583Z" stroke="white" stroke-width="1.5" stroke-linecap="round" stroke-linejoin="round"/>
</svg>
