<svg width="20" height="20" viewBox="0 0 20 20" fill="none" xmlns="http://www.w3.org/2000/svg">
<path d="M16.2929 2.29289C16.6834 1.90237 17.3164 1.90237 17.707 2.29289C18.0975 2.68342 18.0975 3.31643 17.707 3.70696L11.414 9.99992L17.707 16.2929C18.0975 16.6834 18.0975 17.3164 17.707 17.707C17.3164 18.0975 16.6834 18.0975 16.2929 17.707L9.99992 11.414L3.70696 17.707C3.31643 18.0975 2.68342 18.0975 2.29289 17.707C1.90237 17.3164 1.90237 16.6834 2.29289 16.2929L8.58586 9.99992L2.29289 3.70696C1.90237 3.31643 1.90237 2.68342 2.29289 2.29289C2.68342 1.90237 3.31643 1.90237 3.70696 2.29289L9.99992 8.58586L16.2929 2.29289Z" fill="#00A0D2"/>
</svg>
