<svg width="20" height="20" viewBox="0 0 20 20" fill="none" xmlns="http://www.w3.org/2000/svg">
  <path d="M14.1667 5L13.8333 15C13.8101 15.6188 13.5536 16.2077 13.1162 16.6451C12.6788 17.0825 12.0899 17.339 11.4711 17.3622H8.52889C7.91008 17.339 7.32119 17.0825 6.88379 16.6451C6.44639 16.2077 6.18989 15.6188 6.16667 15L5.83333 5M7.5 5V3.33333C7.5 3.11232 7.5878 2.90036 7.74408 2.74408C7.90036 2.5878 8.11232 2.5 8.33333 2.5H11.6667C11.8877 2.5 12.0996 2.5878 12.2559 2.74408C12.4122 2.90036 12.5 3.11232 12.5 3.33333V5M2.5 5H17.5M9.16667 8.33333V14.1667M10.8333 8.33333V14.1667" stroke="#EF4444" stroke-width="1.5" stroke-linecap="round" stroke-linejoin="round"/>
</svg>
