<svg width="29" height="29" viewBox="0 0 29 29" fill="none" xmlns="http://www.w3.org/2000/svg">
<path d="M11.7188 2.34375V4.6875H8.20312V7.03125H5.85938V2.34375H11.7188ZM22.2656 2.34375V7.03125H19.9219V4.6875H16.4062V2.34375H22.2656Z" fill="#047EA5"/>
<path d="M8.20312 7.03125C8.20312 11.0905 10.9894 14.0625 14.0625 14.0625C17.1356 14.0625 19.9219 11.0905 19.9219 7.03125H22.2656C22.2656 12.0329 18.7559 16.4062 14.0625 16.4062C9.36907 16.4062 5.85938 12.0329 5.85938 7.03125H8.20312Z" fill="#047EA5"/>
<path d="M23.4375 18.75C23.4375 18.1028 22.9128 17.5781 22.2656 17.5781C21.6184 17.5781 21.0938 18.1028 21.0938 18.75C21.0938 19.3972 21.6184 19.9219 22.2656 19.9219V22.2656C20.324 22.2656 18.75 20.6916 18.75 18.75C18.75 16.8084 20.324 15.2344 22.2656 15.2344C24.2073 15.2344 25.7812 16.8084 25.7812 18.75C25.7812 20.6916 24.2073 22.2656 22.2656 22.2656V19.9219C22.9128 19.9219 23.4375 19.3972 23.4375 18.75Z" fill="#047EA5"/>
<path d="M12.8906 15.2344V21.0938H15.2344V15.2344H12.8906Z" fill="#047EA5"/>
<path d="M19.9219 21.0938C19.9219 22.3882 18.8725 23.4375 17.5781 23.4375C16.2837 23.4375 15.2344 22.3882 15.2344 21.0938H12.8906C12.8906 23.6826 14.9893 25.7812 17.5781 25.7812C20.167 25.7812 22.2656 23.6826 22.2656 21.0938H19.9219Z" fill="#047EA5"/>
</svg>
