<svg width="16" height="16" viewBox="0 0 16 16" fill="none" xmlns="http://www.w3.org/2000/svg">
<path d="M7.16234 2.55469H3C1.89543 2.55469 1 3.45012 1 4.55469V12.8794C1 13.9839 1.89543 14.8794 3 14.8794H10.8317C11.9363 14.8794 12.8317 13.9839 12.8317 12.8794V8.22404" stroke="#00A0D2" stroke-width="2" stroke-linecap="round"/>
<path d="M12.3476 1.29304C12.7381 0.90252 13.3713 0.90252 13.7618 1.29304L14.4391 1.9704C14.8297 2.36092 14.8297 2.99409 14.4391 3.38461L7.34267 10.4811C7.20307 10.6207 7.02527 10.7158 6.83168 10.7546L5.98499 10.9239C5.28527 11.0638 4.66835 10.4469 4.80829 9.7472L4.97763 8.90051C5.01635 8.70692 5.1115 8.52912 5.25111 8.38952L12.3476 1.29304Z" stroke="#00A0D2" stroke-width="2"/>
</svg>
