<svg width="29" height="29" viewBox="0 0 29 29" fill="none" xmlns="http://www.w3.org/2000/svg">
<path d="M12.8906 2.34375C11.7318 2.34375 10.5989 2.6874 9.63533 3.33123C8.67176 3.97507 7.92075 4.89018 7.47727 5.96084C7.03379 7.0315 6.91775 8.20962 7.14384 9.34623C7.36992 10.4828 7.92797 11.5269 8.74742 12.3463C9.56687 13.1658 10.6109 13.7238 11.7475 13.9499C12.8841 14.176 14.0622 14.06 15.1329 13.6165C16.2036 13.173 17.1187 12.422 17.7625 11.4584C18.4064 10.4949 18.75 9.362 18.75 8.20312C18.75 6.64912 18.1327 5.15877 17.0338 4.05992C15.935 2.96108 14.4446 2.34375 12.8906 2.34375ZM12.8906 11.7188C12.1953 11.7188 11.5156 11.5126 10.9374 11.1263C10.3593 10.74 9.9087 10.1909 9.64261 9.5485C9.37652 8.9061 9.3069 8.19922 9.44255 7.51726C9.5782 6.8353 9.91303 6.20887 10.4047 5.7172C10.8964 5.22553 11.5228 4.8907 12.2048 4.75505C12.8867 4.6194 13.5936 4.68902 14.236 4.95511C14.8784 5.2212 15.4275 5.67181 15.8138 6.24995C16.2001 6.82809 16.4062 7.5078 16.4062 8.20312C16.4062 9.13553 16.0359 10.0297 15.3765 10.689C14.7172 11.3484 13.823 11.7188 12.8906 11.7188ZM23.4375 24.6094V23.4375C23.4375 21.2619 22.5732 19.1754 21.0349 17.637C19.4965 16.0986 17.41 15.2344 15.2344 15.2344H10.5469C8.37127 15.2344 6.28477 16.0986 4.74639 17.637C3.20801 19.1754 2.34375 21.2619 2.34375 23.4375V24.6094H4.6875V23.4375C4.6875 21.8835 5.30483 20.3931 6.40367 19.2943C7.50252 18.1954 8.99287 17.5781 10.5469 17.5781H15.2344C16.7884 17.5781 18.2787 18.1954 19.3776 19.2943C20.4764 20.3931 21.0938 21.8835 21.0938 23.4375V24.6094H23.4375Z" fill="#047EA5"/>
<path d="M21.1464 9.375H23.4901V16.4177H21.1464V9.375Z" fill="#047EA5"/>
<path d="M25.8865 11.7245V14.0682H18.75V11.7245H25.8865Z" fill="#047EA5"/>
</svg>
