<svg width="28" height="28" viewBox="0 0 28 28" fill="none" xmlns="http://www.w3.org/2000/svg">
<path d="M19.8359 11.6641V13.9974H2.33594V11.6641H19.8359Z" fill="#036381"/>
<path d="M8.17806 16.3359C8.82239 16.3359 9.34473 16.8583 9.34473 17.5026C9.34473 18.1469 8.82239 18.6693 8.17806 18.6693H8.16667C7.52233 18.6693 7 18.1469 7 17.5026C7 16.8583 7.52233 16.3359 8.16667 16.3359H8.17806Z" fill="#036381"/>
<path d="M17.4974 16.3359V18.6693H11.6641V16.3359H17.4974Z" fill="#036381"/>
<path d="M23.3359 23.3359H25.6693V14.1484V12.8359H23.3359V23.3359Z" fill="#036381"/>
<path d="M15.1693 4.66406V6.9974H4.66927V20.9974H25.6693V23.3307H2.33594V4.66406H15.1693Z" fill="#036381"/>
<rect x="21" y="3.26562" width="2.33333" height="2.33333" fill="#036381"/>
<path d="M22.1689 1C24.8382 1 27.0028 3.16378 27.0029 5.83301C27.0029 8.50238 24.8383 10.667 22.1689 10.667C19.4997 10.6668 17.3359 8.50228 17.3359 5.83301C17.3361 3.16389 19.4998 1.00018 22.1689 1Z" stroke="#036381" stroke-width="2"/>
<path d="M22.1723 6.29688C22.8135 6.29688 23.3333 6.81921 23.3333 7.46354C23.3333 8.10787 22.8135 8.63021 22.1723 8.63021H22.161C21.5198 8.63021 21 8.10787 21 7.46354C21 6.81921 21.5198 6.29688 22.161 6.29688H22.1723Z" fill="#036381"/>
</svg>
