<svg width="28" height="28" viewBox="0 0 28 28" fill="none" xmlns="http://www.w3.org/2000/svg">
<path d="M25.6667 9.91927C25.6667 14.1076 22.2717 17.5026 18.0833 17.5026C17.885 17.5026 17.675 17.491 17.4767 17.4793C17.185 13.781 14.2217 10.8176 10.5233 10.5259C10.5117 10.3276 10.5 10.1176 10.5 9.91927C10.5 5.73094 13.895 2.33594 18.0833 2.33594C22.2717 2.33594 25.6667 5.73094 25.6667 9.91927Z" stroke="#036381" stroke-width="2" stroke-linecap="round" stroke-linejoin="round"/>
<path d="M17.5026 18.0833C17.5026 22.2717 14.1076 25.6667 9.91927 25.6667C5.73094 25.6667 2.33594 22.2717 2.33594 18.0833C2.33594 13.895 5.73094 10.5 9.91927 10.5C10.1176 10.5 10.3276 10.5117 10.5259 10.5233C14.2243 10.815 17.1876 13.7783 17.4793 17.4767C17.491 17.675 17.5026 17.885 17.5026 18.0833Z" stroke="#036381" stroke-width="2" stroke-linecap="round" stroke-linejoin="round"/>
<path d="M8.88999 17.0541L9.91667 15.1641L10.9433 17.0541L12.8333 18.0807L10.9433 19.1074L9.91667 20.9974L8.88999 19.1074L7 18.0807L8.88999 17.0541Z" stroke="#036381" stroke-width="2" stroke-linecap="round" stroke-linejoin="round"/>
</svg>
