<svg width="28" height="29" viewBox="0 0 28 29" fill="none" xmlns="http://www.w3.org/2000/svg">
<path d="M11.4445 19.7673C11.4443 19.3819 11.1981 19.0562 10.8555 18.9321V20.6012C11.1978 20.477 11.4445 20.1525 11.4445 19.7673ZM11.4445 16.5863C11.4445 16.2008 11.198 15.8753 10.8555 15.7511V17.4989C11.9775 17.647 12.8434 18.6048 12.8436 19.7673C12.8436 20.9298 11.9776 21.8875 10.8555 22.0356V22.5518C10.8555 22.9384 10.5414 23.2513 10.1548 23.2513C9.76842 23.251 9.45524 22.9382 9.45524 22.5518V22.0356C8.3331 21.8875 7.46712 20.9299 7.46712 19.7673C7.46735 19.3808 7.78021 19.0677 8.16667 19.0677C8.55313 19.0677 8.86599 19.3808 8.86621 19.7673C8.86621 20.1526 9.11281 20.477 9.45524 20.6012V18.8547C8.33318 18.7066 7.46733 17.7487 7.46712 16.5863C7.46712 15.4236 8.33303 14.4648 9.45524 14.3167V13.8018C9.45524 13.4153 9.76842 13.1025 10.1548 13.1022C10.5414 13.1022 10.8555 13.4152 10.8555 13.8018V14.3167C11.9776 14.4649 12.8436 15.4236 12.8436 16.5863C12.8434 16.9726 12.5305 17.2858 12.144 17.2858C11.7576 17.2858 11.4447 16.9727 11.4445 16.5863ZM8.86621 16.5863C8.86639 16.9715 9.1128 17.2961 9.45524 17.4202V15.7511C9.11262 15.8753 8.86621 16.2008 8.86621 16.5863Z" fill="#036381"/>
<path d="M25.6667 18.6667C25.6667 18.0223 26.189 17.5 26.8333 17.5C27.4777 17.5 28 18.0223 28 18.6667C28 23.826 23.826 28 18.6667 28C18.2465 28 17.8587 27.7742 17.6515 27.4087C17.4444 27.0429 17.4501 26.5933 17.6663 26.2329L18.8911 24.1912C19.2226 23.6388 19.9394 23.4598 20.4919 23.7913C21.0094 24.1019 21.1992 24.7501 20.9487 25.285C23.696 24.34 25.6667 21.7378 25.6667 18.6667Z" fill="#036381"/>
<path d="M0 9.33333C0 4.174 4.174 0 9.33333 0C9.75348 0 10.1413 0.225814 10.3485 0.591309C10.5556 0.957069 10.5499 1.40667 10.3337 1.76709L9.10889 3.80876C8.77736 4.36121 8.06063 4.54015 7.50814 4.20866C6.99046 3.89805 6.79934 3.24889 7.05013 2.71387C4.30326 3.65901 2.33333 6.2625 2.33333 9.33333C2.33333 9.97766 1.811 10.5 1.16667 10.5C0.522334 10.5 0 9.97766 0 9.33333Z" fill="#036381"/>
<path d="M16.1556 17.6743C16.1534 17.6064 16.151 17.525 16.1499 17.4396C15.9163 14.49 13.5565 12.1344 10.6048 11.9082C10.4009 11.8962 10.2693 11.8877 10.1286 11.8877C6.79468 11.8877 4.09708 14.5854 4.097 17.9193C4.097 21.2532 6.79462 23.9508 10.1286 23.9508C13.4626 23.9508 16.1602 21.2533 16.1602 17.9193C16.1602 17.8414 16.1585 17.7656 16.1556 17.6743ZM18.4935 17.9193C18.4935 22.5419 14.7512 26.2842 10.1286 26.2842C5.50596 26.2841 1.76367 22.5419 1.76367 17.9193C1.76375 13.2967 5.506 9.55441 10.1286 9.55436C10.2432 9.55436 10.3545 9.55848 10.4601 9.56348L10.7575 9.57943L10.7769 9.58057C14.8864 9.89251 18.1666 13.1729 18.4787 17.2824C18.4809 17.3118 18.4821 17.3418 18.4821 17.3713C18.4821 17.4363 18.4847 17.5042 18.4878 17.5991C18.4907 17.6885 18.4935 17.7991 18.4935 17.9193Z" fill="#036381"/>
<path d="M23.9167 10.1491C23.9166 6.81512 21.2191 4.11751 17.8851 4.11751C14.6975 4.11756 12.0933 6.58356 11.8706 9.71387C15.0973 10.3953 17.6372 12.936 18.3192 16.1624C21.4501 15.9403 23.9167 13.3371 23.9167 10.1491ZM26.25 10.1491C26.25 14.7717 22.5078 18.514 17.8851 18.514H17.3132C16.7033 18.5138 16.1962 18.0442 16.1499 17.4362C15.9252 14.4759 13.5583 12.109 10.598 11.8843C9.98999 11.8378 9.52029 11.3308 9.52018 10.721V10.1491C9.52022 5.52648 13.2625 1.78423 17.8851 1.78418C22.5077 1.78418 26.25 5.52645 26.25 10.1491Z" fill="#036381"/>
</svg>
