<svg width="20" height="20" viewBox="0 0 20 20" fill="none" xmlns="http://www.w3.org/2000/svg">
<path d="M10.0013 1.66406C12.6195 1.66406 14.956 2.87266 16.4824 4.75895C16.7718 5.11672 16.7165 5.64135 16.3587 5.93083C16.001 6.22024 15.4763 6.16487 15.1869 5.80713C13.9633 4.29509 12.0952 3.33073 10.0013 3.33073C6.31941 3.33073 3.33464 6.3155 3.33464 9.9974C3.33464 10.4576 2.96154 10.8307 2.5013 10.8307C2.04106 10.8307 1.66797 10.4576 1.66797 9.9974C1.66797 5.39502 5.39893 1.66406 10.0013 1.66406Z" fill="#ACACAC"/>
<path d="M12.918 4.9974H15.418V2.4974C15.418 2.03716 15.7911 1.66406 16.2513 1.66406C16.7115 1.66406 17.0846 2.03716 17.0846 2.4974V5.83073C17.0846 6.29097 16.7115 6.66406 16.2513 6.66406H12.918C12.4577 6.66406 12.0846 6.29097 12.0846 5.83073C12.0846 5.37049 12.4577 4.9974 12.918 4.9974Z" fill="#ACACAC"/>
<path d="M10.0013 18.3307C7.38311 18.3307 5.04657 17.1221 3.52018 15.2358C3.23078 14.8781 3.28615 14.3534 3.64388 14.064C4.00165 13.7746 4.52627 13.8299 4.81576 14.1877C6.0393 15.6997 7.90739 16.6641 10.0013 16.6641C13.6832 16.6641 16.668 13.6793 16.668 9.9974C16.668 9.53716 17.0411 9.16406 17.5013 9.16406C17.9615 9.16406 18.3346 9.53716 18.3346 9.9974C18.3346 14.5998 14.6037 18.3307 10.0013 18.3307Z" fill="#ACACAC"/>
<path d="M7.08464 14.9974H4.58464L4.58464 17.4974C4.58464 17.9576 4.21154 18.3307 3.7513 18.3307C3.29107 18.3307 2.91797 17.9576 2.91797 17.4974L2.91797 14.1641C2.91797 13.7038 3.29107 13.3307 3.7513 13.3307L7.08464 13.3307C7.54487 13.3307 7.91797 13.7038 7.91797 14.1641C7.91797 14.6243 7.54487 14.9974 7.08464 14.9974Z" fill="#ACACAC"/>
</svg>
