<svg width="24" height="24" viewBox="0 0 24 24" fill="none" xmlns="http://www.w3.org/2000/svg">
<path d="M11.6121 11.6149C14.2845 11.6149 16.4509 9.44856 16.4509 6.77621C16.4509 4.10386 14.2845 1.9375 11.6121 1.9375C8.9398 1.9375 6.77344 4.10386 6.77344 6.77621C6.77344 9.44856 8.9398 11.6149 11.6121 11.6149Z" fill="white"/>
<path d="M11.6093 14.0312C6.76089 14.0312 2.8125 17.2829 2.8125 21.2893C2.8125 21.5603 3.0254 21.7732 3.29637 21.7732C8.77659 22.9428 14.442 22.9428 19.9222 21.7732C20.1931 21.7732 20.406 21.5603 20.406 21.2893C20.406 17.2829 16.4577 14.0312 11.6093 14.0312Z" fill="white"/>
</svg>
